<?xml version="1.0" encoding="UTF-8"?>
<svg xmlns="http://www.w3.org/2000/svg" xmlns:xlink="http://www.w3.org/1999/xlink" width="251.8pt" height="251.8pt" viewBox="0 0 251.8 251.8" version="1.1">
<g id="surface1">
<path style=" stroke:none;fill-rule:evenodd;fill:rgb(92.96875%,77.734375%,47.851563%);fill-opacity:1;" d="M 125.984375 -0.046875 C 195.507813 -0.046875 251.886719 56.335938 251.886719 125.855469 C 251.886719 195.378906 195.507813 251.761719 125.984375 251.761719 C 56.460938 251.761719 0.0820313 195.378906 0.0820313 125.855469 C 0.0820313 56.335938 56.460938 -0.046875 125.984375 -0.046875 Z M 125.984375 50.054688 C 167.839844 50.054688 201.785156 84 201.785156 125.855469 C 201.785156 167.714844 167.839844 201.660156 125.984375 201.660156 C 84.125 201.660156 50.183594 167.714844 50.183594 125.855469 C 50.183594 84 84.125 50.054688 125.984375 50.054688 Z M 125.984375 50.054688 "/>
<path style=" stroke:none;fill-rule:evenodd;fill:rgb(6.272888%,24.705505%,46.655273%);fill-opacity:1;" d="M 136.804688 161.476563 C 126.535156 161.546875 121.742188 172.15625 135.449219 173.15625 C 131.734375 174.410156 128.867188 175.632813 127.84375 177.503906 C 125.851563 181.128906 125.289063 185.273438 122.660156 188.46875 C 121.183594 190.257813 118.609375 190.539063 116.433594 191.355469 C 115.648438 192.441406 115.648438 193.527344 116.433594 194.613281 C 113.328125 194.058594 112.289063 192.125 111.546875 189.996094 C 108.734375 191.214844 106.316406 192.632813 106.65625 195.429688 C 104.890625 194.6875 103.714844 192.96875 103.125 190.269531 C 100.304688 190.933594 98.855469 192.378906 98.78125 194.613281 C 96.199219 194.117188 95.777344 191.460938 96.335938 187.824219 C 92.628906 185.15625 97.332031 181.046875 101.769531 180.488281 C 106.074219 179.945313 109.980469 180.9375 112.902344 176.957031 C 114.824219 174.28125 115.390625 171.335938 115.347656 168.265625 C 112.945313 166.855469 109.523438 164.65625 110.359375 160.492188 C 112.988281 147.355469 121.515625 149.28125 127.570313 141.378906 C 125.226563 140.148438 124.265625 138.234375 123.496094 136.21875 C 123.132813 137.03125 123.027344 138.019531 122.410156 138.660156 C 121.710938 139.386719 119.21875 140.480469 117.101563 142.023438 C 114.378906 144.011719 111.796875 146.464844 109.371094 146.808594 C 107.105469 147.132813 106.609375 144.335938 102.855469 144.636719 C 100.792969 144.804688 98.789063 146.300781 97.714844 148.066406 C 96.90625 149.402344 97.964844 150.703125 98.238281 152.242188 C 97.03125 152.242188 96.050781 151.976563 95.292969 151.476563 L 96.027344 166.558594 L 98.066406 166.4375 L 98.410156 172.269531 L 96.3125 172.398438 L 96.324219 172.691406 C 97.472656 173.410156 98.238281 174.6875 98.238281 176.144531 C 98.238281 178.394531 96.414063 180.21875 94.164063 180.21875 C 91.914063 180.21875 90.089844 178.394531 90.089844 176.144531 C 90.089844 174.855469 90.6875 173.703125 91.625 172.957031 L 91.609375 172.683594 L 89.445313 172.8125 L 89.101563 166.980469 L 91.328125 166.84375 L 90.46875 149.195313 C 90.089844 149.667969 89.78125 150.140625 89.546875 150.613281 C 88.683594 148.53125 88.414063 146.449219 88.730469 144.367188 C 87.144531 145.253906 87.03125 146.34375 86.625 147.625 C 84.691406 146.597656 84.816406 143.609375 86.558594 142.191406 C 85.378906 142.375 84.203125 142.554688 83.027344 142.734375 C 83.160156 139.34375 84.390625 138.40625 85.96875 136.671875 C 86.902344 135.640625 88.117188 134.738281 89.730469 134.03125 L 88.578125 110.339844 C 84.546875 108.828125 83.328125 107.3125 84.929688 105.796875 C 81.757813 103.714844 81.488281 101.632813 84.113281 99.550781 C 81.398438 95.476563 82.300781 93.574219 86.828125 93.847656 L 87.761719 93.535156 L 87.667969 91.617188 C 85.960938 91.53125 84.40625 91.148438 83.066406 90.332031 C 84.847656 90.113281 86.378906 89.75 87.546875 89.164063 C 81.953125 88.574219 77.59375 83.84375 77.59375 78.09375 C 77.59375 71.941406 82.578125 66.957031 88.730469 66.957031 C 94.882813 66.957031 99.867188 72.554688 99.867188 78.09375 C 99.867188 83.628906 96.671875 89.074219 92.238281 90.542969 L 92.402344 91.988281 L 92.53125 91.945313 C 95.882813 94.296875 99.234375 96.652344 102.582031 99.007813 C 103.578125 99.007813 104.574219 99.007813 105.570313 99.007813 C 105.933594 99.550781 106.292969 100.09375 106.65625 100.636719 C 108.285156 100.363281 109.917969 100.09375 111.546875 99.820313 C 111.726563 100.453125 111.90625 101.089844 112.089844 101.722656 C 113.128906 100.230469 114.441406 99.820313 115.484375 98.328125 C 116.523438 96.832031 117.296875 94.253906 118.335938 92.757813 C 114.171875 90.132813 112.902344 86.421875 114.535156 81.625 C 116.34375 85.425781 119.242188 85.605469 123.226563 82.167969 C 125.761719 77.097656 124.3125 74.921875 118.878906 75.648438 C 120.507813 72.117188 123.226563 70.035156 127.027344 69.402344 C 127.480469 66.414063 129.742188 64.148438 133.816406 62.609375 C 133.726563 64.964844 135.117188 68.136719 138.980469 68.585938 C 145.828125 69.382813 151.957031 70.820313 156.835938 76.054688 C 156.359375 78.082031 155.386719 79.234375 153.101563 78.90625 C 155.441406 81.152344 152.527344 82.296875 150.65625 85.425781 C 147.082031 83.230469 144.015625 84.734375 144.140625 88.890625 C 144.183594 90.417969 146.613281 90.21875 149.570313 88.683594 C 149.6875 90.269531 149.640625 91.808594 148.484375 93.03125 C 149.839844 94.839844 150.292969 96.652344 149.84375 98.464844 C 145.742188 92.917969 139.675781 94.324219 140.335938 101.992188 C 140.773438 107.050781 146.855469 109.054688 148.484375 103.625 C 153.375 109.011719 150.566406 118.699219 142.78125 115.304688 C 142.78125 117.203125 142.78125 119.105469 142.78125 121.007813 C 146.222656 127.207031 146.351563 137.835938 150.460938 143.734375 C 154.085938 148.941406 160.847656 149.601563 164.238281 146.539063 C 170.414063 140.960938 154.527344 130.585938 153.917969 122.09375 C 152.894531 107.910156 168.929688 105.664063 166.683594 96.5625 C 165.53125 91.898438 159.441406 93.753906 158.804688 99.277344 C 156.089844 86.875 173.808594 82.410156 178.089844 94.390625 C 182.511719 106.757813 166.5 109.148438 163.152344 119.378906 C 176.570313 107.839844 188.441406 128 173.203125 133.773438 C 176.371094 122.457031 164.386719 123.371094 166.410156 129.96875 C 168.695313 137.414063 180.148438 145.003906 171.027344 153.328125 C 168.621094 155.523438 158.082031 156.226563 150.929688 152.242188 C 153.632813 159.046875 157.335938 164.492188 168.039063 160.390625 C 162.507813 167.515625 160.929688 177.199219 162.066406 188.636719 C 161.523438 188.457031 160.980469 188.277344 160.4375 188.09375 C 160.164063 188.636719 159.894531 189.179688 159.621094 189.722656 C 157.460938 190.34375 156.675781 191.996094 156.089844 193.796875 C 154.765625 193.007813 153.488281 192.117188 152.558594 190.539063 C 150.125 190.914063 149.070313 192.664063 148.214844 194.613281 C 146.691406 193.738281 146.144531 192.472656 146.582031 190.8125 C 142.910156 190.019531 140.957031 191.984375 139.25 194.34375 C 136.304688 191.082031 134.800781 187.589844 137.621094 184.5625 C 140.96875 180.972656 146.984375 182.597656 149.300781 179.402344 C 150.960938 177.109375 150.265625 174.167969 149.84375 171.527344 C 149.480469 169.253906 144.742188 170.371094 141.941406 167.753906 C 139.863281 165.816406 138.148438 163.753906 136.804688 161.476563 Z M 94.382813 132.726563 C 95.238281 132.589844 96.15625 132.484375 97.152344 132.414063 C 102.464844 127.953125 108.039063 123.746094 114.535156 120.464844 C 114.171875 118.925781 113.808594 117.386719 113.445313 115.847656 C 110.730469 122.230469 103.125 123.589844 99.59375 119.105469 C 100.863281 117.65625 102.128906 116.207031 103.398438 114.761719 C 102.128906 112.675781 99.234375 112.226563 97.152344 110.957031 L 93.316406 110.820313 Z M 137.464844 76.171875 C 138.429688 75.460938 139.632813 75.101563 141.070313 75.101563 L 143.921875 78.316406 L 142.585938 80.546875 Z M 144.457031 77.734375 L 146.328125 75.59375 C 145.390625 75.28125 144.054688 74.269531 143.34375 74.96875 C 142.628906 75.671875 143.621094 77.171875 144.457031 77.734375 Z M 125.984375 46.800781 C 169.636719 46.800781 205.039063 82.203125 205.039063 125.855469 C 205.039063 169.511719 169.636719 204.914063 125.984375 204.914063 C 82.332031 204.914063 46.929688 169.511719 46.929688 125.855469 C 46.929688 82.203125 82.332031 46.800781 125.984375 46.800781 Z M 125.984375 10.363281 C 189.757813 10.363281 241.476563 62.082031 241.476563 125.855469 C 241.476563 189.632813 189.757813 241.351563 125.984375 241.351563 C 62.210938 241.351563 10.492188 189.632813 10.492188 125.855469 C 10.492188 62.082031 62.210938 10.363281 125.984375 10.363281 Z M 88.730469 74.832031 C 90.53125 74.832031 91.988281 76.292969 91.988281 78.09375 C 91.988281 79.890625 90.53125 81.351563 88.730469 81.351563 C 86.929688 81.351563 85.472656 79.890625 85.472656 78.09375 C 85.472656 76.292969 86.929688 74.832031 88.730469 74.832031 Z M 88.730469 74.832031 "/>
<path style="fill-rule:evenodd;fill:rgb(100%,100%,100%);fill-opacity:1;stroke-width:2;stroke-linecap:butt;stroke-linejoin:miter;stroke:rgb(0%,0%,0%);stroke-opacity:1;stroke-miterlimit:4;" d="M 296.328125 1552.765625 C 358.75 1552.765625 409.375 1502.140625 409.375 1439.757813 C 409.375 1377.335938 358.75 1326.710938 296.328125 1326.710938 C 233.945313 1326.710938 183.320313 1377.335938 183.320313 1439.757813 C 183.320313 1502.140625 233.945313 1552.765625 296.328125 1552.765625 Z M 2220.898438 1552.765625 C 2158.476563 1552.765625 2107.851563 1502.140625 2107.851563 1439.757813 C 2107.851563 1377.335938 2158.476563 1326.710938 2220.898438 1326.710938 C 2283.320313 1326.710938 2333.945313 1377.335938 2333.945313 1439.757813 C 2333.945313 1502.140625 2283.320313 1552.765625 2220.898438 1552.765625 Z M 2220.898438 1552.765625 " transform="matrix(0.1,0,0,-0.1,0,251.8)"/>
<path style=" stroke:none;fill-rule:evenodd;fill:rgb(100%,100%,100%);fill-opacity:1;" d="M 216.089844 171.027344 C 216.832031 170.8125 217.460938 170.339844 217.839844 169.675781 L 217.886719 169.753906 C 217.914063 169.804688 217.957031 169.863281 218.015625 169.941406 C 218.5 170.597656 219.242188 170.996094 220.054688 171.089844 C 220.769531 171.167969 221.554688 171.007813 222.257813 170.570313 C 222.328125 170.53125 222.40625 170.472656 222.503906 170.402344 L 222.507813 170.402344 L 222.507813 170.398438 L 222.511719 170.398438 C 222.699219 170.257813 222.984375 170.09375 223.269531 169.925781 L 223.277344 169.925781 C 223.90625 169.558594 224.550781 169.183594 225.101563 168.59375 L 225.101563 168.589844 C 225.257813 168.425781 225.464844 168.222656 225.695313 168.003906 C 226.527344 167.199219 227.554688 166.207031 227.953125 165.1875 C 227.96875 165.148438 227.992188 165.085938 228.019531 165 C 228.246094 164.308594 228.246094 163.53125 228.027344 162.855469 C 227.96875 162.683594 227.898438 162.515625 227.8125 162.355469 C 228.226563 162.152344 228.578125 161.835938 228.855469 161.441406 C 229.160156 161.007813 229.375 160.464844 229.46875 159.890625 C 229.542969 159.410156 229.539063 158.898438 229.433594 158.410156 L 229.429688 158.410156 L 229.429688 158.40625 C 229.25 157.570313 228.875 156.882813 228.507813 156.199219 C 228.339844 155.890625 228.171875 155.582031 228.0625 155.316406 C 227.945313 155.042969 227.796875 154.371094 227.660156 153.847656 C 227.449219 153.035156 227.15625 152.246094 226.511719 151.582031 C 226.480469 151.550781 226.425781 151.5 226.355469 151.4375 L 226.359375 151.433594 C 225.789063 150.914063 225.035156 150.574219 224.277344 150.492188 C 224 150.464844 223.722656 150.46875 223.449219 150.507813 C 223.320313 149.988281 223.054688 149.503906 222.671875 149.101563 C 222.144531 148.542969 221.394531 148.132813 220.519531 148.003906 C 220.421875 147.992188 220.316406 147.980469 220.203125 147.972656 L 220.175781 147.972656 C 219.34375 147.921875 218.578125 148.09375 217.828125 148.257813 C 217.507813 148.332031 217.1875 148.402344 216.855469 148.441406 L 216.847656 148.441406 C 216.566406 148.472656 216.21875 148.457031 215.867188 148.445313 C 214.875 148.398438 213.867188 148.355469 212.839844 148.910156 C 212.808594 148.925781 212.742188 148.964844 212.65625 149.019531 L 212.648438 149.019531 C 211.996094 149.425781 211.464844 150.054688 211.179688 150.757813 C 211.082031 151 211.011719 151.25 210.976563 151.503906 C 210.757813 151.484375 210.535156 151.484375 210.316406 151.507813 L 210.3125 151.507813 C 209.558594 151.589844 208.808594 151.929688 208.238281 152.449219 L 208.242188 152.453125 C 208.167969 152.515625 208.117188 152.566406 208.082031 152.601563 C 207.4375 153.261719 207.144531 154.050781 206.933594 154.863281 C 206.796875 155.386719 206.648438 156.058594 206.535156 156.332031 C 206.445313 156.542969 206.292969 156.859375 206.136719 157.191406 C 205.757813 157.984375 205.351563 158.839844 205.164063 159.699219 L 205.164063 159.703125 C 205.121094 159.894531 205.09375 160.089844 205.082031 160.285156 C 205.03125 161.09375 205.246094 161.808594 205.648438 162.375 C 206.007813 162.882813 206.5 163.25 207.078125 163.453125 C 206.960938 163.710938 206.882813 163.988281 206.839844 164.269531 C 206.738281 164.96875 206.871094 165.734375 207.210938 166.378906 C 207.234375 166.421875 207.265625 166.480469 207.304688 166.546875 L 207.304688 166.550781 C 207.871094 167.488281 209.050781 168.292969 210.003906 168.941406 C 210.296875 169.140625 210.566406 169.324219 210.683594 169.410156 L 210.679688 169.417969 L 210.699219 169.425781 C 211.332031 169.90625 212.039063 170.171875 212.722656 170.425781 C 213.007813 170.535156 213.292969 170.640625 213.527344 170.753906 L 213.527344 170.757813 L 213.554688 170.769531 C 213.617188 170.800781 213.710938 170.84375 213.832031 170.890625 L 213.832031 170.898438 C 214.59375 171.210938 215.394531 171.230469 216.089844 171.03125 Z M 216.089844 171.027344 "/>
<path style=" stroke:none;fill-rule:evenodd;fill:rgb(92.96875%,77.734375%,47.851563%);fill-opacity:1;" d="M 174.175781 55.4375 L 172.050781 53.636719 C 171.699219 53.335938 171.652344 52.8125 171.949219 52.457031 C 172.015625 52.378906 172.09375 52.316406 172.179688 52.269531 L 194.113281 39.914063 C 194.515625 39.6875 195.023438 39.832031 195.25 40.234375 C 195.367188 40.441406 195.382813 40.679688 195.316406 40.890625 L 188.699219 66.300781 C 188.582031 66.746094 188.128906 67.015625 187.683594 66.898438 C 187.507813 66.851563 187.359375 66.753906 187.25 66.625 L 182.929688 61.734375 C 182.730469 61.511719 182.675781 61.210938 182.753906 60.941406 L 184.316406 55.738281 L 180.679688 52.3125 L 175.136719 55.519531 C 174.820313 55.703125 174.4375 55.65625 174.175781 55.433594 Z M 174.042969 53.136719 L 174.808594 53.78125 L 180.367188 50.566406 C 180.679688 50.375 181.09375 50.40625 181.371094 50.671875 L 185.808594 54.851563 C 186.050781 55.058594 186.160156 55.398438 186.0625 55.726563 L 184.488281 60.980469 L 187.480469 64.367188 L 193.21875 42.335938 Z M 185.632813 51.34375 L 186.324219 49.046875 L 184.355469 50.183594 Z M 188.527344 47.507813 L 186.855469 53.085938 L 186.851563 53.085938 C 186.816406 53.199219 186.757813 53.3125 186.671875 53.40625 C 186.363281 53.746094 185.835938 53.773438 185.496094 53.464844 L 182.429688 50.6875 C 182.347656 50.625 182.28125 50.546875 182.226563 50.453125 C 181.996094 50.054688 182.132813 49.542969 182.53125 49.3125 L 187.269531 46.570313 C 187.46875 46.441406 187.722656 46.394531 187.964844 46.46875 C 188.410156 46.601563 188.660156 47.066406 188.527344 47.507813 Z M 155.859375 45.628906 L 163.933594 26.078125 C 164.109375 25.652344 164.597656 25.445313 165.023438 25.621094 L 165.058594 25.636719 L 176.914063 31.15625 C 177.332031 31.351563 177.515625 31.847656 177.320313 32.265625 L 177.308594 32.285156 L 176.0625 35.097656 C 175.878906 35.519531 175.382813 35.710938 174.960938 35.523438 C 174.945313 35.515625 174.925781 35.507813 174.910156 35.5 L 168.636719 32.460938 L 167.289063 35.433594 L 173.613281 38.546875 C 174.027344 38.75 174.195313 39.25 173.992188 39.664063 L 173.988281 39.675781 L 172.441406 43.25 C 172.261719 43.671875 171.769531 43.867188 171.347656 43.683594 L 171.308594 43.664063 L 171.308594 43.667969 L 165.09375 40.582031 L 163.628906 43.902344 L 170.390625 47.023438 C 170.8125 47.21875 170.992188 47.714844 170.800781 48.132813 C 170.792969 48.148438 170.785156 48.164063 170.777344 48.179688 L 169.320313 51.460938 C 169.136719 51.878906 168.648438 52.070313 168.230469 51.890625 L 168.226563 51.890625 L 156.300781 46.710938 C 155.882813 46.53125 155.6875 46.046875 155.859375 45.628906 Z M 165.144531 27.519531 L 157.714844 45.507813 L 168.132813 50.03125 L 168.945313 48.195313 L 162.207031 45.085938 L 162.199219 45.082031 C 161.777344 44.894531 161.585938 44.402344 161.769531 43.980469 L 163.917969 39.105469 L 163.933594 39.074219 C 164.136719 38.660156 164.636719 38.492188 165.050781 38.695313 L 171.261719 41.777344 L 172.164063 39.691406 L 165.851563 36.585938 L 165.847656 36.585938 C 165.429688 36.398438 165.242188 35.902344 165.429688 35.480469 L 167.46875 30.992188 L 167.480469 30.972656 C 167.679688 30.558594 168.179688 30.382813 168.59375 30.585938 L 174.882813 33.632813 L 175.464844 32.324219 Z M 134.882813 37.363281 L 138.765625 35.640625 C 139.183594 35.457031 139.671875 35.644531 139.863281 36.0625 C 140.410156 37.132813 140.953125 37.863281 141.523438 38.359375 C 142.046875 38.808594 142.609375 39.066406 143.230469 39.210938 C 143.414063 39.226563 143.582031 39.226563 143.734375 39.214844 C 144.101563 39.191406 144.386719 39.09375 144.566406 38.925781 C 144.742188 38.761719 144.851563 38.496094 144.882813 38.121094 C 144.898438 37.964844 144.898438 37.792969 144.886719 37.613281 C 144.8125 36.585938 143.582031 35.761719 142.199219 34.835938 C 139.890625 33.292969 137.226563 31.511719 137.25 27.605469 C 137.25 27.523438 137.25 27.457031 137.253906 27.402344 L 137.253906 27.378906 C 137.277344 26.886719 137.363281 26.402344 137.507813 25.9375 C 137.65625 25.460938 137.867188 25 138.128906 24.5625 C 139.429688 22.40625 142.117188 20.746094 145.699219 20.65625 L 145.738281 20.652344 L 145.746094 20.652344 C 146.375 20.640625 146.980469 20.675781 147.558594 20.761719 C 148.148438 20.851563 148.71875 20.992188 149.265625 21.179688 C 152.085938 22.167969 154.125 24.472656 154.5625 27.949219 C 154.621094 28.40625 154.296875 28.824219 153.839844 28.882813 L 153.820313 28.882813 L 153.820313 28.886719 L 150.132813 29.269531 C 149.675781 29.3125 149.265625 28.984375 149.214844 28.527344 C 149.210938 28.480469 149.203125 28.4375 149.199219 28.40625 C 149.175781 28.21875 149.136719 28.023438 149.085938 27.828125 C 149.035156 27.632813 148.96875 27.429688 148.886719 27.222656 C 148.539063 26.335938 147.921875 25.503906 146.996094 25.507813 C 146.96875 25.507813 146.921875 25.511719 146.859375 25.515625 C 146.394531 25.546875 146.050781 25.742188 145.824219 26.015625 C 145.582031 26.304688 145.464844 26.683594 145.464844 27.074219 C 145.464844 27.089844 145.46875 27.125 145.46875 27.175781 C 145.527344 28.101563 146.578125 28.816406 147.796875 29.648438 C 150.089844 31.207031 152.859375 33.089844 152.597656 37.792969 L 152.59375 37.828125 C 152.558594 38.449219 152.464844 39.054688 152.316406 39.628906 C 152.164063 40.210938 151.957031 40.761719 151.699219 41.277344 C 150.355469 43.929688 147.609375 45.625 143.664063 45.527344 C 141.003906 45.464844 139.03125 44.585938 137.539063 43.253906 C 136.074219 41.949219 135.109375 40.21875 134.4375 38.417969 C 134.28125 38.003906 134.480469 37.542969 134.882813 37.363281 Z M 138.734375 37.484375 L 136.292969 38.566406 C 136.855469 39.871094 137.609375 41.082031 138.652344 42.011719 C 139.863281 43.09375 141.488281 43.808594 143.703125 43.863281 C 146.933594 43.941406 149.152344 42.609375 150.207031 40.523438 C 150.417969 40.113281 150.582031 39.671875 150.703125 39.210938 C 150.824219 38.746094 150.898438 38.25 150.929688 37.730469 L 150.929688 37.695313 C 151.140625 33.933594 148.800781 32.34375 146.863281 31.027344 C 145.277344 29.949219 143.910156 29.015625 143.804688 27.273438 C 143.800781 27.230469 143.800781 27.164063 143.796875 27.082031 C 143.792969 26.3125 144.042969 25.542969 144.535156 24.949219 C 145.039063 24.339844 145.78125 23.914063 146.75 23.847656 C 146.808594 23.84375 146.886719 23.84375 146.988281 23.84375 C 148.785156 23.832031 149.882813 25.175781 150.445313 26.613281 C 150.546875 26.871094 150.632813 27.140625 150.699219 27.410156 L 150.730469 27.527344 L 152.761719 27.316406 C 152.214844 25 150.714844 23.453125 148.71875 22.757813 C 148.277344 22.605469 147.808594 22.488281 147.316406 22.417969 C 146.816406 22.339844 146.300781 22.308594 145.78125 22.320313 L 145.738281 22.320313 C 142.78125 22.398438 140.59375 23.714844 139.5625 25.425781 C 139.363281 25.75 139.210938 26.089844 139.105469 26.433594 C 138.996094 26.777344 138.933594 27.121094 138.917969 27.464844 L 138.917969 27.472656 C 138.917969 27.53125 138.914063 27.578125 138.914063 27.613281 C 138.898438 30.621094 141.164063 32.136719 143.125 33.449219 C 144.871094 34.617188 146.417969 35.652344 146.550781 37.496094 C 146.570313 37.773438 146.570313 38.027344 146.550781 38.265625 C 146.480469 39.074219 146.1875 39.699219 145.703125 40.148438 C 145.230469 40.589844 144.601563 40.828125 143.851563 40.882813 C 143.589844 40.902344 143.320313 40.898438 143.039063 40.875 L 143.039063 40.871094 C 143.003906 40.871094 142.96875 40.863281 142.933594 40.859375 C 142.027344 40.660156 141.207031 40.289063 140.429688 39.617188 C 139.832031 39.101563 139.273438 38.410156 138.734375 37.480469 Z M 117.679688 40.992188 L 117.09375 19.847656 C 117.078125 19.386719 117.441406 19.003906 117.902344 18.992188 C 117.921875 18.988281 117.941406 18.988281 117.960938 18.992188 L 123.160156 19.015625 C 123.621094 19.015625 123.992188 19.390625 123.992188 19.847656 L 124.070313 36.257813 L 131.519531 36.355469 C 131.976563 36.359375 132.34375 36.734375 132.339844 37.195313 L 132.347656 40.84375 C 132.347656 41.300781 131.976563 41.671875 131.519531 41.675781 L 118.515625 41.804688 C 118.0625 41.808594 117.691406 41.445313 117.679688 40.992188 L 117.675781 40.992188 Z M 118.78125 20.660156 L 119.320313 40.128906 L 130.679688 40.019531 L 130.675781 38.011719 L 123.230469 37.914063 C 122.777344 37.90625 122.410156 37.539063 122.40625 37.082031 L 122.328125 20.675781 L 118.785156 20.660156 Z M 97.84375 45.949219 L 91.996094 25.683594 C 91.871094 25.242188 92.128906 24.78125 92.570313 24.652344 L 92.601563 24.644531 L 105.316406 21.578125 C 105.761719 21.46875 106.210938 21.742188 106.320313 22.1875 L 107.101563 25.191406 C 107.21875 25.636719 106.949219 26.09375 106.503906 26.207031 L 106.480469 26.214844 L 99.652344 27.75 L 100.449219 30.917969 L 107.335938 29.410156 C 107.78125 29.316406 108.222656 29.59375 108.328125 30.039063 L 109.351563 33.824219 C 109.472656 34.269531 109.207031 34.726563 108.761719 34.84375 C 108.746094 34.847656 108.734375 34.851563 108.71875 34.855469 L 101.9375 36.3125 L 102.863281 39.824219 L 110.101563 38.050781 C 110.546875 37.945313 110.996094 38.21875 111.105469 38.664063 L 112.027344 42.191406 C 112.140625 42.636719 111.875 43.089844 111.433594 43.207031 L 98.878906 46.585938 C 98.429688 46.707031 97.972656 46.441406 97.855469 45.996094 C 97.851563 45.980469 97.847656 45.964844 97.84375 45.949219 Z M 93.839844 26.0625 L 99.234375 44.761719 L 110.203125 41.808594 L 109.695313 39.867188 L 102.5 41.628906 L 102.476563 41.636719 C 102.03125 41.753906 101.574219 41.488281 101.457031 41.039063 L 100.105469 35.910156 C 100.097656 35.890625 100.09375 35.871094 100.089844 35.851563 C 99.996094 35.398438 100.28125 34.957031 100.734375 34.859375 L 107.507813 33.40625 L 106.914063 31.214844 L 100.011719 32.722656 C 99.574219 32.816406 99.136719 32.546875 99.023438 32.109375 L 97.824219 27.328125 L 97.820313 27.308594 C 97.71875 26.859375 98.003906 26.414063 98.453125 26.3125 L 105.269531 24.777344 L 104.910156 23.390625 Z M 64.898438 53.882813 L 68.15625 53.316406 C 68.613281 53.242188 69.042969 53.546875 69.121094 54 C 69.125 54.027344 69.128906 54.054688 69.132813 54.082031 C 69.445313 56.902344 69.359375 59.390625 68.765625 61.441406 C 68.144531 63.59375 66.972656 65.253906 65.132813 66.3125 L 65.132813 66.316406 L 65.125 66.320313 C 64.371094 66.753906 63.597656 67.113281 62.8125 67.40625 C 62.03125 67.695313 61.25 67.910156 60.472656 68.054688 C 56.457031 68.800781 52.570313 67.632813 49.714844 64.945313 L 49.710938 64.945313 L 49.695313 64.925781 C 49.179688 64.441406 48.703125 63.886719 48.273438 63.28125 C 47.847656 62.679688 47.46875 62.019531 47.144531 61.3125 C 45.488281 57.714844 45.359375 53.011719 48.144531 48.953125 L 48.167969 48.921875 L 48.203125 48.871094 L 48.207031 48.863281 C 48.621094 48.273438 49.085938 47.761719 49.585938 47.320313 C 50.089844 46.871094 50.625 46.503906 51.179688 46.210938 C 53.972656 44.726563 57.40625 44.933594 60.542969 45.789063 C 60.988281 45.910156 61.25 46.371094 61.128906 46.8125 C 61.109375 46.878906 61.085938 46.9375 61.054688 46.996094 L 59.738281 49.386719 C 59.527344 49.769531 59.0625 49.921875 58.671875 49.75 C 58.324219 49.601563 57.980469 49.488281 57.636719 49.410156 C 57.292969 49.332031 56.945313 49.289063 56.605469 49.28125 C 54.882813 49.246094 53.230469 50.125 52.363281 52.089844 L 52.359375 52.089844 C 52.175781 52.515625 52.035156 52.9375 51.945313 53.359375 C 51.851563 53.789063 51.804688 54.214844 51.804688 54.628906 C 51.785156 56.832031 52.921875 58.980469 54.78125 60.617188 L 54.785156 60.617188 L 54.796875 60.628906 C 54.8125 60.644531 54.828125 60.65625 54.84375 60.671875 C 55.230469 61.007813 55.636719 61.304688 56.046875 61.558594 C 56.472656 61.820313 56.90625 62.03125 57.339844 62.195313 C 59.519531 63.019531 61.835938 62.609375 63.679688 60.730469 L 63.6875 60.722656 C 63.890625 60.515625 64.0625 60.296875 64.199219 60.066406 C 64.34375 59.832031 64.457031 59.59375 64.539063 59.355469 C 65.003906 58.015625 64.734375 56.414063 64.242188 54.976563 C 64.09375 54.539063 64.328125 54.066406 64.765625 53.917969 C 64.808594 53.902344 64.855469 53.890625 64.898438 53.882813 Z M 67.554688 55.117188 L 66.105469 55.371094 C 66.496094 56.851563 66.617188 58.445313 66.113281 59.898438 C 65.988281 60.261719 65.828125 60.609375 65.625 60.9375 C 65.421875 61.269531 65.175781 61.585938 64.882813 61.886719 L 64.875 61.894531 L 64.875 61.898438 C 62.519531 64.296875 59.550781 64.816406 56.753906 63.757813 C 56.21875 63.558594 55.691406 63.296875 55.179688 62.984375 C 54.6875 62.683594 54.210938 62.332031 53.746094 61.929688 C 53.726563 61.914063 53.710938 61.902344 53.695313 61.890625 L 53.679688 61.875 C 51.46875 59.929688 50.113281 57.324219 50.136719 54.617188 C 50.140625 54.078125 50.195313 53.539063 50.3125 53.011719 C 50.425781 52.476563 50.597656 51.941406 50.832031 51.417969 L 50.832031 51.414063 C 52.007813 48.757813 54.269531 47.5625 56.636719 47.617188 C 57.09375 47.625 57.550781 47.683594 58.003906 47.785156 C 58.210938 47.832031 58.417969 47.886719 58.621094 47.949219 L 59.066406 47.144531 C 56.59375 46.609375 54.03125 46.589844 51.960938 47.6875 C 51.507813 47.929688 51.078125 48.222656 50.6875 48.566406 C 50.289063 48.917969 49.917969 49.335938 49.574219 49.824219 L 49.539063 49.867188 L 49.523438 49.894531 C 47.109375 53.414063 47.222656 57.492188 48.660156 60.621094 C 48.933594 61.222656 49.265625 61.792969 49.636719 62.320313 C 50.003906 62.835938 50.40625 63.300781 50.835938 63.710938 L 50.839844 63.714844 L 50.84375 63.714844 L 50.84375 63.71875 L 50.851563 63.722656 C 53.320313 66.050781 56.6875 67.058594 60.171875 66.414063 C 60.855469 66.289063 61.542969 66.097656 62.230469 65.84375 C 62.910156 65.589844 63.601563 65.265625 64.296875 64.867188 L 64.300781 64.863281 L 64.304688 64.863281 C 65.738281 64.039063 66.664063 62.710938 67.164063 60.976563 C 67.632813 59.355469 67.738281 57.378906 67.554688 55.117188 Z M 85.941406 49.453125 L 82.191406 42.601563 L 78.316406 44.863281 L 82.328125 51.566406 C 82.566406 51.960938 82.4375 52.472656 82.039063 52.710938 L 82.03125 52.714844 L 76.890625 55.699219 C 76.492188 55.929688 75.980469 55.792969 75.75 55.394531 L 75.742188 55.382813 L 65.269531 37.851563 C 65.03125 37.453125 65.160156 36.941406 65.554688 36.707031 L 70.628906 33.65625 C 71.027344 33.417969 71.539063 33.546875 71.773438 33.945313 L 71.785156 33.960938 L 75.820313 40.695313 L 79.835938 38.296875 L 76.152344 31.566406 C 75.933594 31.164063 76.082031 30.660156 76.484375 30.4375 L 81.667969 27.582031 C 82.074219 27.359375 82.582031 27.507813 82.800781 27.910156 L 92.6875 45.917969 C 92.90625 46.320313 92.761719 46.828125 92.355469 47.050781 L 92.34375 47.054688 L 92.347656 47.058594 L 87.09375 49.84375 C 86.6875 50.058594 86.179688 49.90625 85.964844 49.496094 C 85.957031 49.480469 85.949219 49.46875 85.941406 49.453125 Z M 83.242188 41.050781 L 87.039063 47.980469 L 90.8125 45.976563 L 81.738281 29.445313 L 78.015625 31.5 L 81.671875 38.175781 C 81.902344 38.570313 81.773438 39.082031 81.382813 39.316406 L 75.960938 42.554688 C 75.5625 42.792969 75.050781 42.664063 74.816406 42.269531 L 70.773438 35.515625 L 67.125 37.707031 L 76.765625 53.839844 L 80.460938 51.695313 L 76.476563 45.042969 C 76.464844 45.027344 76.453125 45.007813 76.441406 44.988281 C 76.210938 44.589844 76.34375 44.078125 76.742188 43.847656 L 82.089844 40.726563 L 82.113281 40.714844 C 82.515625 40.496094 83.023438 40.644531 83.242188 41.046875 Z M 90.902344 214.394531 L 91.589844 212.21875 C 91.730469 211.78125 92.199219 211.535156 92.640625 211.675781 C 92.671875 211.683594 92.707031 211.695313 92.738281 211.710938 L 101.144531 214.777344 C 101.578125 214.933594 101.800781 215.414063 101.644531 215.847656 L 101.640625 215.855469 L 100.847656 218.128906 C 100.695313 218.5625 100.21875 218.792969 99.785156 218.640625 L 99.761719 218.632813 L 97.953125 217.941406 L 94.890625 226.378906 C 94.734375 226.8125 94.253906 227.035156 93.820313 226.878906 L 93.800781 226.871094 L 90.597656 225.613281 C 90.167969 225.445313 89.957031 224.960938 90.125 224.53125 L 90.128906 224.519531 L 93.203125 216.117188 L 91.40625 215.425781 C 90.988281 215.269531 90.773438 214.8125 90.90625 214.394531 Z M 92.921875 213.554688 L 92.734375 214.148438 L 94.566406 214.851563 L 94.5625 214.851563 C 94.988281 215.011719 95.207031 215.484375 95.050781 215.914063 L 91.964844 224.355469 L 93.613281 225.003906 L 96.660156 216.613281 C 96.667969 216.59375 96.671875 216.574219 96.679688 216.558594 C 96.84375 216.125 97.324219 215.910156 97.757813 216.074219 L 99.554688 216.761719 L 99.800781 216.0625 Z M 106.742188 221.285156 L 107.585938 218.726563 C 107.730469 218.292969 108.199219 218.054688 108.632813 218.191406 L 109.613281 218.503906 C 110.507813 218.785156 110.886719 219.523438 110.890625 220.324219 C 110.894531 220.601563 110.847656 220.886719 110.757813 221.15625 C 110.664063 221.429688 110.53125 221.6875 110.371094 221.90625 C 110.351563 221.929688 110.335938 221.953125 110.316406 221.972656 C 109.820313 222.589844 109.070313 222.945313 108.1875 222.648438 L 107.269531 222.339844 C 106.835938 222.191406 106.597656 221.722656 106.742188 221.285156 Z M 108.917969 220.035156 L 108.589844 221.023438 L 108.71875 221.066406 C 108.816406 221.097656 108.921875 221.039063 109.003906 220.941406 L 109.027344 220.90625 C 109.09375 220.820313 109.144531 220.726563 109.175781 220.632813 C 109.207031 220.53125 109.226563 220.429688 109.226563 220.332031 C 109.222656 220.21875 109.191406 220.121094 109.113281 220.097656 Z M 105.253906 226.433594 L 106.285156 223.320313 C 106.425781 222.882813 106.894531 222.644531 107.328125 222.785156 L 108.523438 223.160156 C 109.523438 223.476563 109.949219 224.304688 109.953125 225.207031 C 109.957031 225.527344 109.902344 225.851563 109.796875 226.164063 C 109.695313 226.472656 109.542969 226.769531 109.347656 227.027344 C 108.792969 227.769531 107.925781 228.210938 106.902344 227.863281 L 105.78125 227.488281 C 105.347656 227.34375 105.109375 226.871094 105.253906 226.4375 Z M 107.613281 224.628906 L 107.101563 226.171875 L 107.429688 226.28125 C 107.652344 226.359375 107.863281 226.230469 108.015625 226.027344 C 108.101563 225.914063 108.167969 225.78125 108.214844 225.640625 C 108.261719 225.496094 108.289063 225.351563 108.285156 225.214844 C 108.285156 225.003906 108.207031 224.816406 108.019531 224.757813 Z M 101.152344 227.886719 L 104.726563 216.003906 C 104.859375 215.5625 105.324219 215.3125 105.765625 215.441406 C 105.78125 215.445313 105.796875 215.453125 105.808594 215.457031 L 111.03125 217 C 111.984375 217.285156 112.695313 217.832031 113.15625 218.515625 C 113.171875 218.535156 113.183594 218.554688 113.195313 218.574219 C 113.589844 219.175781 113.792969 219.878906 113.796875 220.585938 C 113.804688 221.308594 113.609375 222.042969 113.210938 222.691406 C 112.910156 223.175781 112.5 223.609375 111.976563 223.957031 C 112.464844 224.703125 112.695313 225.5 112.710938 226.28125 C 112.730469 227.078125 112.523438 227.847656 112.152344 228.511719 C 111.777344 229.179688 111.230469 229.746094 110.570313 230.128906 C 109.691406 230.640625 108.613281 230.832031 107.472656 230.515625 L 101.730469 228.929688 C 101.285156 228.804688 101.027344 228.347656 101.148438 227.902344 Z M 106.089844 217.28125 L 103 227.546875 L 107.917969 228.90625 C 108.589844 229.09375 109.21875 228.984375 109.734375 228.683594 C 110.132813 228.453125 110.464844 228.105469 110.695313 227.695313 C 110.929688 227.28125 111.054688 226.800781 111.046875 226.3125 C 111.03125 225.632813 110.742188 224.917969 110.082031 224.285156 L 110.085938 224.285156 C 109.992188 224.195313 109.917969 224.085938 109.875 223.957031 C 109.722656 223.523438 109.953125 223.046875 110.386719 222.894531 C 111.039063 222.667969 111.507813 222.273438 111.792969 221.8125 C 112.023438 221.441406 112.136719 221.015625 112.132813 220.601563 C 112.128906 220.207031 112.019531 219.824219 111.804688 219.492188 L 111.777344 219.457031 C 111.519531 219.078125 111.113281 218.765625 110.558594 218.601563 Z M 80.546875 219.597656 C 80.246094 219.441406 79.996094 219.234375 79.785156 218.988281 C 79.769531 218.96875 79.753906 218.949219 79.738281 218.925781 C 79.550781 218.695313 79.402344 218.429688 79.285156 218.144531 C 78.722656 216.769531 78.964844 214.808594 79.378906 213.480469 C 79.519531 213.027344 79.730469 212.496094 79.992188 211.972656 C 80.367188 211.222656 80.851563 210.46875 81.410156 209.933594 C 81.734375 209.625 82.082031 209.382813 82.449219 209.242188 C 81.683594 209.316406 80.890625 209.566406 80.140625 209.972656 C 79.777344 210.167969 79.429688 210.394531 79.105469 210.648438 C 78.785156 210.902344 78.480469 211.1875 78.199219 211.5 L 78.183594 211.519531 L 78.167969 211.535156 L 78.074219 211.648438 C 77.203125 212.699219 76.867188 214.117188 76.957031 215.464844 C 77.039063 216.773438 77.523438 217.992188 78.300781 218.710938 C 78.316406 218.722656 78.332031 218.734375 78.34375 218.746094 C 78.398438 218.792969 78.402344 218.796875 78.40625 218.804688 L 78.414063 218.808594 L 78.496094 218.875 C 79.394531 219.582031 80.65625 219.996094 81.980469 219.898438 C 83.304688 219.800781 84.691406 219.175781 85.832031 217.800781 C 85.917969 217.691406 85.910156 217.707031 85.933594 217.679688 L 86.007813 217.582031 C 86.019531 217.5625 86.03125 217.546875 86.042969 217.527344 C 87.0625 216.164063 87.363281 214.648438 87.167969 213.285156 C 86.980469 211.953125 86.324219 210.773438 85.414063 210.035156 C 85.398438 210.023438 85.386719 210.015625 85.371094 210.003906 L 85.3125 209.957031 L 85.285156 209.9375 C 84.976563 209.707031 84.632813 209.53125 84.265625 209.414063 C 84.546875 209.582031 84.78125 209.789063 84.972656 210.027344 C 85.191406 210.300781 85.351563 210.617188 85.46875 210.964844 C 85.980469 212.476563 85.539063 214.609375 85.09375 216.039063 C 84.996094 216.355469 84.847656 216.714844 84.664063 217.082031 C 84.3125 217.789063 83.816406 218.519531 83.257813 219.035156 C 82.566406 219.671875 81.757813 220.015625 80.902344 219.75 C 80.800781 219.71875 80.699219 219.675781 80.605469 219.628906 C 80.582031 219.621094 80.566406 219.609375 80.546875 219.597656 Z M 81.054688 217.902344 C 81.128906 217.988281 81.21875 218.0625 81.320313 218.121094 L 81.347656 218.132813 C 81.371094 218.144531 81.386719 218.152344 81.402344 218.15625 C 81.585938 218.214844 81.851563 218.058594 82.125 217.804688 C 82.53125 217.429688 82.902344 216.878906 83.171875 216.335938 C 83.308594 216.066406 83.421875 215.792969 83.5 215.542969 C 83.875 214.339844 84.257813 212.589844 83.886719 211.492188 C 83.832031 211.332031 83.757813 211.1875 83.664063 211.066406 C 83.582031 210.960938 83.476563 210.875 83.355469 210.8125 L 83.351563 210.8125 C 83.335938 210.804688 83.316406 210.796875 83.285156 210.789063 C 83.09375 210.726563 82.835938 210.878906 82.566406 211.136719 C 82.164063 211.523438 81.789063 212.113281 81.488281 212.714844 C 81.265625 213.164063 81.089844 213.609375 80.972656 213.980469 C 80.644531 215.035156 80.433594 216.550781 80.828125 217.519531 C 80.882813 217.652344 80.949219 217.773438 81.027344 217.871094 Z M 77.324219 220.070313 C 77.261719 220.019531 77.25 220.011719 77.238281 220 C 77.222656 219.984375 77.203125 219.96875 77.1875 219.949219 C 76.078125 218.9375 75.402344 217.296875 75.289063 215.570313 C 75.175781 213.832031 75.625 211.984375 76.785156 210.585938 C 76.796875 210.566406 76.839844 210.523438 76.90625 210.445313 L 76.910156 210.441406 C 76.921875 210.421875 76.941406 210.40625 76.957031 210.390625 C 77.300781 210.003906 77.675781 209.65625 78.070313 209.34375 C 78.484375 209.015625 78.914063 208.734375 79.347656 208.5 C 81.683594 207.246094 84.390625 207.183594 86.285156 208.597656 C 86.300781 208.609375 86.3125 208.621094 86.328125 208.632813 L 86.410156 208.695313 C 86.429688 208.710938 86.445313 208.722656 86.460938 208.738281 C 87.691406 209.734375 88.574219 211.300781 88.824219 213.050781 C 89.074219 214.816406 88.691406 216.777344 87.386719 218.527344 C 87.371094 218.546875 87.355469 218.566406 87.339844 218.585938 C 87.308594 218.625 87.277344 218.667969 87.238281 218.710938 C 87.144531 218.835938 87.132813 218.847656 87.117188 218.867188 C 85.65625 220.632813 83.84375 221.4375 82.097656 221.566406 C 80.347656 221.695313 78.664063 221.132813 77.453125 220.175781 L 77.445313 220.167969 L 77.445313 220.171875 L 77.359375 220.101563 C 77.347656 220.089844 77.335938 220.082031 77.324219 220.070313 Z M 78.171875 211.53125 L 78.167969 211.53125 Z M 67.203125 211.273438 C 66.886719 211.113281 66.617188 210.894531 66.394531 210.632813 L 66.394531 210.636719 C 66.179688 210.386719 66.015625 210.101563 65.890625 209.792969 C 65.878906 209.769531 65.871094 209.746094 65.863281 209.722656 C 65.339844 208.351563 65.578125 206.433594 65.984375 205.132813 C 66.125 204.6875 66.335938 204.152344 66.605469 203.617188 C 66.980469 202.867188 67.46875 202.113281 68.019531 201.582031 C 68.34375 201.273438 68.691406 201.03125 69.058594 200.890625 C 68.292969 200.964844 67.5 201.214844 66.746094 201.621094 C 66.382813 201.816406 66.035156 202.042969 65.710938 202.296875 C 65.394531 202.546875 65.09375 202.828125 64.8125 203.140625 C 64.800781 203.15625 64.789063 203.171875 64.773438 203.1875 C 64.746094 203.222656 64.714844 203.257813 64.679688 203.296875 C 63.8125 204.347656 63.472656 205.765625 63.5625 207.113281 C 63.648438 208.445313 64.148438 209.683594 64.953125 210.398438 C 64.964844 210.410156 64.96875 210.410156 65.027344 210.457031 L 65.023438 210.460938 L 65.105469 210.523438 C 66.003906 211.230469 67.265625 211.644531 68.585938 211.546875 C 69.914063 211.449219 71.300781 210.824219 72.4375 209.445313 C 72.488281 209.386719 72.519531 209.347656 72.539063 209.324219 L 72.542969 209.324219 L 72.652344 209.175781 C 73.671875 207.808594 73.972656 206.292969 73.777344 204.933594 C 73.585938 203.582031 72.914063 202.386719 71.984375 201.652344 L 71.929688 201.609375 C 71.917969 201.601563 71.90625 201.59375 71.890625 201.585938 C 71.582031 201.355469 71.238281 201.179688 70.871094 201.0625 C 71.152344 201.226563 71.386719 201.4375 71.578125 201.675781 C 71.796875 201.949219 71.960938 202.265625 72.078125 202.613281 C 72.585938 204.125 72.148438 206.257813 71.703125 207.6875 C 71.605469 208.003906 71.457031 208.359375 71.273438 208.726563 C 70.921875 209.433594 70.425781 210.167969 69.863281 210.683594 C 69.171875 211.320313 68.363281 211.664063 67.511719 211.398438 C 67.417969 211.371094 67.320313 211.328125 67.210938 211.273438 Z M 67.957031 209.785156 C 67.964844 209.789063 67.984375 209.796875 68.007813 209.804688 C 68.195313 209.863281 68.457031 209.707031 68.734375 209.453125 C 69.140625 209.078125 69.511719 208.527344 69.78125 207.984375 C 69.917969 207.710938 70.027344 207.4375 70.105469 207.191406 C 70.480469 205.988281 70.863281 204.238281 70.492188 203.140625 C 70.4375 202.980469 70.367188 202.835938 70.269531 202.71875 C 70.1875 202.613281 70.085938 202.523438 69.960938 202.464844 L 69.957031 202.460938 C 69.945313 202.457031 69.921875 202.445313 69.894531 202.4375 C 69.699219 202.378906 69.445313 202.53125 69.175781 202.785156 C 68.769531 203.175781 68.394531 203.765625 68.09375 204.363281 C 67.875 204.800781 67.699219 205.246094 67.582031 205.628906 C 67.257813 206.664063 67.046875 208.140625 67.414063 209.109375 C 67.421875 209.128906 67.429688 209.148438 67.4375 209.167969 C 67.5 209.316406 67.574219 209.449219 67.664063 209.550781 L 67.660156 209.550781 L 67.664063 209.554688 C 67.738281 209.644531 67.835938 209.722656 67.953125 209.78125 L 67.953125 209.785156 Z M 63.960938 211.746094 L 63.847656 211.648438 C 62.707031 210.636719 62.011719 208.972656 61.894531 207.21875 C 61.78125 205.480469 62.234375 203.632813 63.390625 202.230469 C 63.433594 202.183594 63.476563 202.128906 63.527344 202.078125 C 63.539063 202.0625 63.550781 202.046875 63.566406 202.035156 C 63.910156 201.652344 64.285156 201.300781 64.679688 200.992188 C 65.09375 200.664063 65.519531 200.382813 65.957031 200.148438 C 68.289063 198.894531 71 198.832031 72.890625 200.246094 C 72.910156 200.257813 72.929688 200.273438 72.945313 200.289063 L 73.015625 200.34375 C 74.273438 201.339844 75.175781 202.925781 75.429688 204.699219 C 75.683594 206.464844 75.300781 208.425781 73.992188 210.175781 L 73.847656 210.359375 L 73.84375 210.363281 L 73.847656 210.363281 C 73.792969 210.429688 73.75 210.484375 73.726563 210.511719 C 72.265625 212.28125 70.453125 213.085938 68.703125 213.214844 C 66.957031 213.34375 65.269531 212.78125 64.0625 211.824219 L 64.050781 211.816406 L 63.96875 211.75 Z M 130.042969 230.859375 L 128.710938 219.617188 C 128.65625 219.15625 128.984375 218.742188 129.441406 218.6875 L 129.472656 218.683594 L 132.261719 218.445313 C 132.71875 218.40625 133.125 218.75 133.160156 219.210938 C 133.164063 219.230469 133.164063 219.246094 133.164063 219.265625 L 133.957031 227.5625 L 137.554688 227.28125 C 138.015625 227.25 138.417969 227.59375 138.453125 228.054688 L 138.453125 228.101563 L 138.628906 229.988281 C 138.667969 230.445313 138.335938 230.851563 137.878906 230.894531 L 130.957031 231.589844 C 130.503906 231.636719 130.097656 231.308594 130.046875 230.859375 Z M 130.472656 220.277344 L 131.609375 229.847656 L 136.890625 229.316406 L 136.863281 229.011719 L 133.269531 229.292969 L 133.269531 229.289063 C 132.816406 229.324219 132.417969 228.988281 132.375 228.535156 L 131.578125 220.183594 Z M 142.355469 229.671875 L 139.664063 218.675781 C 139.558594 218.230469 139.832031 217.777344 140.28125 217.671875 L 140.304688 217.664063 L 143.046875 217.085938 C 143.496094 216.992188 143.9375 217.28125 144.03125 217.734375 L 144.039063 217.773438 L 145.839844 225.929688 L 149.375 225.214844 C 149.824219 225.125 150.257813 225.414063 150.355469 225.855469 L 150.359375 225.855469 L 150.773438 227.769531 C 150.871094 228.21875 150.582031 228.664063 150.132813 228.761719 C 150.117188 228.765625 150.105469 228.769531 150.089844 228.769531 L 143.351563 230.292969 C 142.90625 230.390625 142.464844 230.113281 142.355469 229.671875 Z M 141.492188 219.121094 L 143.78125 228.484375 L 148.960938 227.3125 L 148.898438 227.011719 L 145.367188 227.726563 C 144.921875 227.816406 144.488281 227.53125 144.390625 227.089844 L 142.578125 218.890625 Z M 144.039063 217.773438 C 144.109375 218.210938 143.824219 218.628906 143.386719 218.722656 Z M 50.941406 199.933594 L 58.957031 189.988281 C 59.246094 189.628906 59.773438 189.570313 60.132813 189.859375 L 60.160156 189.882813 L 66.085938 195.105469 C 66.433594 195.410156 66.464844 195.9375 66.160156 196.285156 L 66.144531 196.304688 L 64.953125 197.703125 C 64.65625 198.054688 64.128906 198.101563 63.773438 197.800781 L 63.753906 197.78125 L 60.878906 195.167969 L 60.019531 196.160156 L 62.914063 198.824219 C 63.253906 199.136719 63.277344 199.667969 62.964844 200.007813 L 62.957031 200.015625 L 61.464844 201.804688 C 61.171875 202.160156 60.644531 202.207031 60.292969 201.914063 C 60.28125 201.902344 60.269531 201.890625 60.257813 201.882813 L 57.449219 199.28125 L 54.546875 202.835938 C 54.257813 203.191406 53.734375 203.246094 53.375 202.960938 L 51.070313 201.105469 C 50.710938 200.816406 50.652344 200.292969 50.941406 199.933594 Z M 59.710938 191.714844 L 52.765625 200.328125 L 53.777344 201.140625 L 56.699219 197.5625 Z M 64.363281 195.816406 L 59.710938 191.714844 Z M 64.238281 195.964844 L 64.363281 195.816406 Z M 61.367188 193.355469 L 64.238281 195.964844 Z M 60.148438 193.457031 C 60.164063 193.441406 60.175781 193.425781 60.1875 193.414063 C 60.5 193.070313 61.027344 193.046875 61.367188 193.355469 Z M 58.226563 195.679688 L 60.148438 193.457031 Z M 58.292969 196.839844 C 57.964844 196.535156 57.929688 196.023438 58.226563 195.679688 Z M 61.199219 199.519531 L 58.292969 196.839844 Z M 60.746094 200.0625 L 61.199219 199.519531 Z M 57.933594 197.453125 L 60.746094 200.0625 Z M 56.753906 197.496094 C 57.066406 197.160156 57.597656 197.140625 57.933594 197.453125 Z M 198.101563 191.050781 L 196.1875 189.15625 C 195.859375 188.835938 195.851563 188.3125 196.167969 187.984375 L 196.882813 187.242188 C 197.53125 186.566406 198.359375 186.554688 199.078125 186.902344 L 199.082031 186.902344 C 199.328125 187.023438 199.5625 187.191406 199.769531 187.398438 C 199.96875 187.59375 200.140625 187.828125 200.269531 188.078125 C 200.640625 188.8125 200.644531 189.675781 199.964844 190.359375 L 199.28125 191.042969 C 198.957031 191.371094 198.429688 191.371094 198.105469 191.050781 Z M 197.941406 188.546875 L 198.683594 189.28125 L 198.78125 189.183594 C 198.863281 189.101563 198.84375 188.960938 198.777344 188.832031 C 198.734375 188.742188 198.667969 188.65625 198.589844 188.578125 C 198.519531 188.507813 198.4375 188.449219 198.347656 188.40625 C 198.246094 188.355469 198.140625 188.339844 198.085938 188.402344 Z M 202.058594 194.667969 L 199.722656 192.363281 C 199.398438 192.042969 199.390625 191.519531 199.707031 191.1875 L 200.574219 190.285156 C 201.300781 189.53125 202.230469 189.515625 203.039063 189.90625 C 203.328125 190.046875 203.597656 190.242188 203.832031 190.476563 C 204.0625 190.703125 204.261719 190.972656 204.40625 191.261719 C 204.824219 192.085938 204.835938 193.0625 204.070313 193.828125 L 203.234375 194.664063 C 202.910156 194.988281 202.386719 194.992188 202.058594 194.667969 Z M 201.480469 191.753906 L 202.640625 192.898438 L 202.886719 192.648438 C 203.050781 192.484375 203.03125 192.238281 202.914063 192.011719 C 202.851563 191.886719 202.761719 191.765625 202.65625 191.660156 C 202.550781 191.554688 202.433594 191.46875 202.3125 191.410156 C 202.117188 191.316406 201.910156 191.304688 201.777344 191.441406 Z M 201.539063 198.988281 L 192.476563 190.515625 C 192.136719 190.203125 192.117188 189.671875 192.433594 189.335938 C 192.449219 189.320313 192.460938 189.304688 192.476563 189.289063 L 196.164063 185.308594 C 196.839844 184.582031 197.648438 184.1875 198.464844 184.074219 C 199.203125 183.96875 199.945313 184.097656 200.601563 184.414063 C 201.253906 184.730469 201.824219 185.230469 202.230469 185.875 C 202.242188 185.898438 202.253906 185.917969 202.265625 185.941406 C 202.546875 186.410156 202.742188 186.949219 202.820313 187.546875 C 203.703125 187.433594 204.519531 187.585938 205.222656 187.914063 L 205.222656 187.910156 C 205.945313 188.246094 206.546875 188.773438 206.980469 189.40625 C 207.410156 190.039063 207.675781 190.777344 207.726563 191.539063 C 207.796875 192.554688 207.488281 193.605469 206.699219 194.488281 L 202.730469 198.929688 C 202.421875 199.273438 201.894531 199.304688 201.550781 198.996094 L 201.539063 198.984375 Z M 194.21875 189.859375 L 202.054688 197.183594 L 205.457031 193.375 C 205.921875 192.859375 206.101563 192.242188 206.0625 191.652344 C 206.03125 191.191406 205.867188 190.738281 205.601563 190.347656 C 205.332031 189.960938 204.964844 189.632813 204.519531 189.425781 L 204.519531 189.421875 C 203.914063 189.140625 203.164063 189.078125 202.328125 189.363281 C 202.195313 189.425781 202.042969 189.449219 201.886719 189.429688 C 201.429688 189.375 201.105469 188.957031 201.160156 188.5 C 201.242188 187.832031 201.109375 187.257813 200.84375 186.804688 C 200.832031 186.792969 200.824219 186.777344 200.8125 186.757813 C 200.578125 186.386719 200.25 186.097656 199.878906 185.917969 C 199.511719 185.742188 199.097656 185.671875 198.695313 185.726563 C 198.238281 185.789063 197.78125 186.015625 197.386719 186.441406 Z M 182.917969 198.207031 L 185.414063 196.339844 C 185.78125 196.066406 186.304688 196.140625 186.582031 196.507813 Z M 185.765625 198.160156 L 184.535156 199.078125 L 188.90625 205.050781 C 189.828125 206.308594 191.253906 206.546875 192.566406 206.167969 L 192.597656 206.160156 C 193.144531 205.996094 193.667969 205.734375 194.128906 205.398438 C 194.585938 205.066406 194.988281 204.65625 195.292969 204.195313 C 196.007813 203.125 196.164063 201.757813 195.203125 200.46875 L 190.730469 194.449219 L 190.054688 194.953125 L 193.824219 200.074219 C 194.570313 201.089844 194.671875 202.125 194.371094 202.929688 C 194.238281 203.292969 194.019531 203.605469 193.742188 203.851563 C 193.726563 203.867188 193.710938 203.886719 193.691406 203.898438 C 193.386719 204.15625 193.015625 204.328125 192.605469 204.398438 C 191.765625 204.542969 190.757813 204.25 189.84375 203.296875 C 189.820313 203.269531 189.792969 203.246094 189.769531 203.214844 Z M 186.582031 196.507813 L 191.058594 202.15625 C 191.53125 202.644531 191.984375 202.808594 192.324219 202.75 C 192.4375 202.730469 192.539063 202.683594 192.621094 202.617188 L 192.648438 202.597656 C 192.714844 202.53125 192.773438 202.449219 192.808594 202.347656 C 192.929688 202.03125 192.851563 201.570313 192.476563 201.058594 L 188.21875 195.273438 C 187.949219 194.902344 188.027344 194.382813 188.394531 194.109375 L 188.390625 194.109375 L 190.398438 192.609375 C 190.769531 192.332031 191.292969 192.410156 191.570313 192.78125 C 191.578125 192.792969 191.589844 192.808594 191.601563 192.824219 L 196.546875 199.476563 C 197.996094 201.429688 197.765625 203.496094 196.6875 205.117188 C 196.273438 205.738281 195.730469 206.292969 195.109375 206.746094 C 194.488281 207.199219 193.792969 207.546875 193.074219 207.761719 L 193.03125 207.773438 C 191.09375 208.335938 188.964844 207.957031 187.558594 206.035156 L 182.703125 199.402344 C 182.429688 199.027344 182.507813 198.507813 182.882813 198.234375 L 182.917969 198.207031 Z M 121.394531 223.183594 L 122.625 225.980469 C 122.675781 226.097656 122.703125 226.226563 122.695313 226.363281 C 122.683594 226.53125 122.628906 226.683594 122.535156 226.808594 C 122.839844 226.84375 123.113281 227.042969 123.226563 227.351563 L 124.285156 230.234375 L 126.023438 230.242188 L 121.332031 220.625 L 120.40625 222.714844 C 120.800781 222.605469 121.226563 222.796875 121.394531 223.183594 Z M 118.75 226.570313 C 118.738281 226.550781 118.730469 226.53125 118.71875 226.507813 L 118.683594 226.59375 C 118.707031 226.585938 118.726563 226.578125 118.75 226.570313 Z M 117.460938 231.597656 L 115.917969 231.554688 C 115.460938 231.542969 115.09375 231.164063 115.105469 230.703125 C 115.109375 230.578125 115.140625 230.457031 115.191406 230.351563 L 120.539063 218.308594 C 120.726563 217.890625 121.214844 217.699219 121.636719 217.886719 C 121.824219 217.96875 121.964844 218.109375 122.050781 218.28125 L 128.113281 230.71875 C 128.316406 231.132813 128.140625 231.632813 127.726563 231.835938 C 127.585938 231.90625 127.4375 231.929688 127.292969 231.917969 L 123.695313 231.898438 C 123.339844 231.898438 123.035156 231.667969 122.917969 231.351563 L 122.914063 231.351563 L 121.84375 228.433594 L 119.507813 228.257813 L 118.289063 231.089844 C 118.144531 231.429688 117.808594 231.621094 117.460938 231.597656 Z M 180.78125 216.078125 L 173.949219 207.050781 C 173.671875 206.679688 173.742188 206.15625 174.113281 205.878906 L 174.148438 205.855469 L 176.421875 204.246094 C 176.796875 203.980469 177.320313 204.070313 177.582031 204.449219 L 177.609375 204.488281 L 182.492188 211.253906 L 185.453125 209.199219 C 185.828125 208.9375 186.34375 209.027344 186.609375 209.398438 L 187.75 210.988281 C 188.019531 211.363281 187.933594 211.886719 187.558594 212.15625 C 187.539063 212.167969 187.523438 212.179688 187.503906 212.1875 L 181.9375 216.246094 C 181.570313 216.515625 181.054688 216.4375 180.78125 216.074219 Z M 175.800781 206.730469 L 181.621094 214.417969 L 185.910156 211.292969 L 185.730469 211.042969 L 182.773438 213.09375 L 182.769531 213.09375 C 182.398438 213.351563 181.886719 213.265625 181.617188 212.894531 L 176.707031 206.089844 Z M 174.132813 205.863281 L 174.148438 205.851563 Z M 173.351563 214.597656 L 175.046875 214.890625 C 175.480469 214.964844 175.78125 215.359375 175.738281 215.792969 C 175.707031 216.207031 175.648438 216.605469 175.566406 216.984375 C 175.484375 217.371094 175.378906 217.734375 175.25 218.074219 C 174.558594 219.890625 173.21875 221.066406 171.355469 221.496094 L 171.351563 221.5 C 170.890625 221.605469 170.429688 221.664063 169.976563 221.679688 C 169.527344 221.695313 169.082031 221.667969 168.652344 221.601563 C 166.4375 221.257813 164.574219 219.859375 163.589844 217.9375 L 163.585938 217.929688 L 163.582031 217.929688 C 163.40625 217.582031 163.257813 217.203125 163.144531 216.796875 C 163.035156 216.394531 162.957031 215.984375 162.921875 215.566406 C 162.730469 213.398438 163.535156 210.9375 165.726563 209.347656 L 165.730469 209.34375 C 166.058594 209.109375 166.410156 208.914063 166.773438 208.761719 C 167.132813 208.609375 167.5 208.503906 167.871094 208.433594 C 169.757813 208.089844 171.742188 208.785156 172.933594 210.070313 C 173.25 210.40625 173.230469 210.9375 172.890625 211.25 C 172.878906 211.265625 172.863281 211.277344 172.847656 211.289063 L 171.816406 212.203125 C 171.492188 212.488281 171.003906 212.476563 170.691406 212.183594 L 170.691406 212.1875 L 170.691406 212.183594 L 170.683594 212.175781 C 170.5625 212.066406 170.433594 211.96875 170.304688 211.886719 C 170.171875 211.804688 170.035156 211.734375 169.894531 211.683594 C 169.203125 211.421875 168.40625 211.542969 167.769531 212.21875 C 167.710938 212.277344 167.664063 212.332031 167.625 212.378906 C 167.5 212.53125 167.390625 212.695313 167.300781 212.867188 C 167.210938 213.039063 167.136719 213.214844 167.085938 213.394531 C 166.8125 214.3125 166.992188 215.367188 167.523438 216.324219 L 167.527344 216.324219 L 167.527344 216.328125 C 167.539063 216.347656 167.546875 216.363281 167.558594 216.382813 C 167.675781 216.585938 167.804688 216.777344 167.945313 216.953125 C 168.089844 217.132813 168.246094 217.292969 168.410156 217.433594 C 169.210938 218.113281 170.257813 218.289063 171.332031 217.765625 L 171.382813 217.738281 L 171.421875 217.71875 C 171.507813 217.671875 171.585938 217.613281 171.660156 217.550781 C 171.738281 217.480469 171.8125 217.402344 171.878906 217.316406 C 172.25 216.820313 172.371094 216.101563 172.378906 215.410156 C 172.382813 214.953125 172.761719 214.582031 173.222656 214.589844 C 173.265625 214.589844 173.3125 214.59375 173.351563 214.597656 L 173.355469 214.597656 Z M 173.980469 216.402344 L 173.96875 216.398438 C 173.863281 217.085938 173.636719 217.761719 173.210938 218.324219 C 173.082031 218.496094 172.925781 218.660156 172.75 218.8125 C 172.59375 218.949219 172.417969 219.074219 172.222656 219.183594 C 172.207031 219.191406 172.1875 219.203125 172.171875 219.210938 C 172.117188 219.242188 172.082031 219.257813 172.0625 219.269531 C 170.335938 220.109375 168.636719 219.816406 167.332031 218.707031 C 167.085938 218.5 166.855469 218.261719 166.640625 218 C 166.449219 217.757813 166.265625 217.488281 166.101563 217.199219 C 166.09375 217.1875 166.082031 217.171875 166.074219 217.15625 L 166.078125 217.15625 L 166.074219 217.152344 L 166.074219 217.148438 L 166.070313 217.148438 C 165.324219 215.800781 165.082031 214.289063 165.484375 212.925781 C 165.566406 212.640625 165.679688 212.359375 165.820313 212.09375 C 165.960938 211.828125 166.132813 211.570313 166.335938 211.320313 C 166.410156 211.230469 166.484375 211.144531 166.558594 211.066406 C 166.957031 210.648438 167.394531 210.347656 167.84375 210.152344 C 167.699219 210.191406 167.558594 210.242188 167.417969 210.300781 C 167.179688 210.398438 166.941406 210.53125 166.710938 210.699219 L 166.707031 210.703125 C 165.050781 211.90625 164.441406 213.773438 164.589844 215.425781 C 164.617188 215.75 164.671875 216.0625 164.753906 216.355469 C 164.832031 216.636719 164.941406 216.914063 165.074219 217.171875 L 165.070313 217.175781 L 165.074219 217.179688 C 165.820313 218.636719 167.230469 219.695313 168.90625 219.953125 C 169.234375 220.003906 169.570313 220.027344 169.917969 220.011719 C 170.261719 220 170.613281 219.953125 170.976563 219.871094 L 170.980469 219.871094 C 172.273438 219.574219 173.203125 218.75 173.6875 217.476563 C 173.789063 217.214844 173.871094 216.933594 173.933594 216.636719 C 173.949219 216.5625 173.964844 216.480469 173.980469 216.402344 Z M 173.980469 216.402344 "/>
<path style=" stroke:none;fill-rule:evenodd;fill:rgb(100%,100%,100%);fill-opacity:1;" d="M 174.714844 54.796875 L 172.589844 53 L 194.519531 40.640625 L 187.890625 66.089844 L 183.554688 61.183594 L 185.261719 55.484375 L 180.800781 51.277344 Z M 186.054688 52.847656 L 187.726563 47.269531 L 182.949219 50.035156 Z M 156.632813 45.945313 L 164.707031 26.394531 L 176.5625 31.914063 L 175.296875 34.761719 L 168.230469 31.335938 L 166.191406 35.824219 L 173.242188 39.292969 L 171.675781 42.917969 L 164.679688 39.441406 L 162.535156 44.316406 L 170.042969 47.78125 L 168.558594 51.125 Z M 135.21875 38.128906 L 139.101563 36.40625 C 140.308594 38.789063 141.5625 39.699219 143.109375 40.042969 C 144.828125 40.191406 145.855469 39.441406 145.71875 37.554688 C 145.472656 34.160156 138.046875 33.601563 138.082031 27.609375 C 138.101563 24.574219 141.066406 21.609375 145.71875 21.488281 C 149.855469 21.382813 153.1875 23.6875 153.738281 28.054688 L 150.046875 28.4375 C 149.878906 26.949219 148.964844 24.664063 146.992188 24.675781 C 145.375 24.683594 144.5625 25.96875 144.636719 27.226563 C 144.839844 30.570313 152.15625 30.707031 151.765625 37.746094 C 151.539063 41.832031 148.683594 44.816406 143.683594 44.695313 C 138.8125 44.578125 136.480469 41.507813 135.21875 38.128906 Z M 118.511719 40.96875 L 117.925781 19.824219 L 123.15625 19.847656 L 123.242188 37.078125 L 131.507813 37.1875 L 131.515625 40.84375 Z M 98.660156 45.78125 L 92.796875 25.453125 L 105.511719 22.386719 L 106.296875 25.402344 L 98.632813 27.125 L 99.835938 31.90625 L 107.511719 30.230469 L 108.546875 34.039063 L 100.90625 35.675781 L 102.265625 40.828125 L 110.296875 38.863281 L 111.21875 42.398438 Z M 65.03125 54.707031 L 68.296875 54.140625 C 68.910156 59.609375 67.996094 63.707031 64.71875 65.589844 C 59.542969 68.5625 53.984375 67.820313 50.277344 64.332031 C 46.863281 61.113281 45.222656 54.6875 48.835938 49.425781 C 51.523438 45.511719 56.179688 45.460938 60.324219 46.59375 L 59.003906 48.984375 C 56.242188 47.789063 53.019531 48.539063 51.597656 51.75 C 50.097656 55.136719 51.402344 58.761719 54.234375 61.25 C 57.390625 64.023438 61.355469 64.292969 64.277344 61.3125 C 66.054688 59.503906 65.785156 56.910156 65.03125 54.707031 Z M 86.703125 49.105469 L 82.511719 41.449219 L 77.164063 44.566406 L 81.613281 51.992188 L 76.46875 54.976563 L 65.984375 37.421875 L 71.058594 34.371094 L 75.53125 41.839844 L 80.953125 38.601563 L 76.882813 31.167969 L 82.070313 28.3125 L 91.953125 46.320313 Z M 91.703125 214.648438 L 92.386719 212.472656 L 100.859375 215.5625 L 100.058594 217.851563 L 97.460938 216.855469 L 94.105469 226.09375 L 90.898438 224.835938 L 94.265625 215.632813 Z M 107.535156 221.546875 L 108.382813 218.988281 L 109.363281 219.300781 C 110.75 219.738281 109.859375 222.332031 108.453125 221.855469 Z M 106.046875 226.695313 L 107.078125 223.582031 L 108.273438 223.957031 C 109.964844 224.492188 108.878906 227.652344 107.164063 227.074219 Z M 101.953125 228.125 L 105.527344 216.242188 L 110.792969 217.800781 C 113.714844 218.667969 113.707031 222.621094 110.660156 223.683594 C 113.488281 226.398438 110.929688 230.605469 107.695313 229.710938 Z M 80.976563 218.882813 C 79.421875 218.105469 79.65625 215.390625 80.175781 213.730469 C 80.679688 212.109375 82.203125 209.308594 83.722656 210.066406 C 85.4375 210.925781 84.867188 213.960938 84.296875 215.792969 C 83.847656 217.234375 82.328125 219.558594 80.976563 218.882813 Z M 77.886719 219.453125 C 75.828125 217.75 75.351563 213.453125 77.542969 210.984375 C 79.847656 208.382813 83.53125 207.582031 85.785156 209.265625 C 88.085938 210.984375 89.117188 215 86.585938 218.195313 C 83.949219 221.527344 80.003906 221.207031 77.886719 219.453125 Z M 67.582031 210.53125 C 66.03125 209.753906 66.265625 207.039063 66.78125 205.378906 C 67.289063 203.757813 68.8125 200.957031 70.332031 201.714844 C 72.046875 202.574219 71.472656 205.609375 70.902344 207.441406 C 70.453125 208.882813 68.9375 211.207031 67.582031 210.53125 Z M 64.492188 211.101563 C 62.433594 209.398438 61.960938 205.101563 64.148438 202.632813 C 66.457031 200.03125 70.136719 199.230469 72.390625 200.914063 C 74.695313 202.632813 75.722656 206.648438 73.191406 209.84375 C 70.554688 213.175781 66.613281 212.855469 64.492188 211.101563 Z M 130.875 230.761719 L 129.539063 219.519531 L 132.328125 219.277344 L 133.207031 228.457031 L 137.617188 228.117188 L 137.796875 230.066406 Z M 143.167969 229.476563 L 140.476563 218.480469 L 143.214844 217.902344 L 145.203125 226.910156 L 149.539063 226.035156 L 149.957031 227.945313 Z M 51.589844 200.457031 L 59.609375 190.507813 L 65.53125 195.730469 L 64.316406 197.164063 L 60.804688 193.972656 L 58.859375 196.226563 L 62.351563 199.441406 L 60.824219 201.273438 L 57.363281 198.066406 L 53.898438 202.308594 Z M 198.6875 190.457031 L 196.769531 188.5625 L 197.484375 187.820313 C 198.492188 186.769531 200.421875 188.71875 199.375 189.769531 Z M 202.644531 194.074219 L 200.308594 191.765625 L 201.175781 190.863281 C 202.40625 189.585938 204.753906 191.960938 203.476563 193.238281 Z M 202.109375 198.375 L 193.042969 189.902344 L 196.777344 185.875 C 198.847656 183.640625 202.386719 185.402344 201.988281 188.601563 C 205.675781 187.269531 208.316406 191.429688 206.078125 193.933594 Z M 183.375 198.90625 L 185.914063 197.007813 L 190.425781 202.699219 C 192.445313 204.835938 194.773438 202.773438 193.148438 200.566406 L 188.890625 194.78125 L 190.898438 193.28125 L 195.875 199.972656 C 199.296875 204.578125 191.441406 209.925781 188.234375 205.542969 Z M 121.859375 226.316406 L 120.632813 223.519531 L 119.488281 226.179688 Z M 117.519531 230.765625 L 115.9375 230.722656 L 121.300781 218.648438 L 127.363281 231.085938 L 123.699219 231.0625 L 122.441406 227.640625 L 118.976563 227.378906 Z M 181.445313 215.574219 L 174.613281 206.546875 L 176.902344 204.929688 L 182.296875 212.410156 L 185.929688 209.882813 L 187.070313 211.476563 Z M 173.210938 215.421875 L 174.90625 215.714844 C 174.699219 218.4375 173.367188 220.175781 171.167969 220.683594 C 168.226563 221.359375 165.535156 219.90625 164.332031 217.558594 C 163.222656 215.394531 163.539063 211.96875 166.21875 210.027344 C 168.210938 208.578125 170.917969 209.125 172.324219 210.640625 L 171.261719 211.578125 C 170.121094 210.515625 168.414063 210.320313 167.164063 211.640625 C 165.84375 213.035156 165.847656 215.03125 166.800781 216.742188 C 167.859375 218.644531 169.75 219.464844 171.695313 218.519531 C 172.878906 217.941406 173.199219 216.628906 173.210938 215.421875 Z M 173.210938 215.421875 "/>
<path style=" stroke:none;fill-rule:evenodd;fill:rgb(100%,100%,100%);fill-opacity:1;" d="M 36.300781 171.027344 C 35.554688 170.8125 34.925781 170.339844 34.546875 169.675781 L 34.5 169.753906 C 34.472656 169.804688 34.429688 169.863281 34.371094 169.941406 C 33.886719 170.597656 33.148438 170.996094 32.332031 171.089844 C 31.617188 171.167969 30.832031 171.007813 30.128906 170.570313 C 30.0625 170.53125 29.980469 170.472656 29.886719 170.402344 L 29.878906 170.402344 L 29.878906 170.398438 C 29.6875 170.257813 29.40625 170.09375 29.117188 169.925781 L 29.109375 169.925781 C 28.484375 169.558594 27.835938 169.183594 27.285156 168.59375 L 27.285156 168.589844 C 27.132813 168.425781 26.921875 168.222656 26.695313 168.003906 C 25.859375 167.199219 24.832031 166.207031 24.433594 165.1875 C 24.417969 165.148438 24.398438 165.085938 24.371094 165 L 24.367188 165 C 24.144531 164.308594 24.140625 163.53125 24.363281 162.855469 C 24.417969 162.683594 24.492188 162.515625 24.574219 162.355469 C 24.160156 162.152344 23.808594 161.835938 23.53125 161.441406 C 23.226563 161.007813 23.011719 160.464844 22.921875 159.890625 C 22.84375 159.410156 22.847656 158.898438 22.957031 158.410156 L 22.957031 158.40625 C 23.140625 157.570313 23.515625 156.882813 23.882813 156.199219 C 24.050781 155.890625 24.214844 155.582031 24.328125 155.316406 C 24.441406 155.042969 24.589844 154.371094 24.726563 153.847656 C 24.9375 153.035156 25.230469 152.246094 25.878906 151.582031 C 25.910156 151.550781 25.960938 151.5 26.035156 151.4375 L 26.03125 151.433594 C 26.601563 150.914063 27.355469 150.574219 28.109375 150.492188 C 28.386719 150.464844 28.664063 150.46875 28.9375 150.507813 C 29.066406 149.988281 29.335938 149.503906 29.71875 149.101563 C 30.242188 148.542969 30.992188 148.132813 31.867188 148.003906 C 31.96875 147.992188 32.074219 147.980469 32.183594 147.972656 L 32.214844 147.972656 C 33.046875 147.921875 33.808594 148.09375 34.558594 148.257813 C 34.882813 148.332031 35.199219 148.402344 35.535156 148.441406 L 35.542969 148.441406 C 35.820313 148.472656 36.171875 148.457031 36.519531 148.445313 C 37.515625 148.398438 38.523438 148.355469 39.546875 148.910156 C 39.582031 148.925781 39.648438 148.964844 39.730469 149.019531 L 39.738281 149.019531 C 40.390625 149.425781 40.925781 150.054688 41.207031 150.757813 C 41.304688 151 41.375 151.25 41.414063 151.503906 C 41.632813 151.484375 41.851563 151.484375 42.074219 151.507813 L 42.078125 151.507813 C 42.832031 151.589844 43.582031 151.929688 44.152344 152.449219 L 44.148438 152.453125 C 44.222656 152.515625 44.273438 152.566406 44.308594 152.601563 C 44.953125 153.261719 45.246094 154.050781 45.457031 154.863281 C 45.59375 155.386719 45.742188 156.058594 45.855469 156.332031 C 45.945313 156.542969 46.097656 156.859375 46.253906 157.191406 C 46.632813 157.984375 47.039063 158.839844 47.226563 159.699219 L 47.226563 159.703125 C 47.269531 159.894531 47.296875 160.089844 47.308594 160.285156 C 47.359375 161.09375 47.144531 161.808594 46.742188 162.375 C 46.382813 162.882813 45.890625 163.25 45.3125 163.453125 C 45.429688 163.710938 45.507813 163.988281 45.546875 164.269531 C 45.652344 164.96875 45.519531 165.734375 45.179688 166.378906 C 45.15625 166.421875 45.125 166.480469 45.085938 166.546875 L 45.085938 166.550781 C 44.519531 167.488281 43.339844 168.292969 42.386719 168.941406 C 42.09375 169.140625 41.824219 169.324219 41.707031 169.410156 L 41.710938 169.417969 L 41.691406 169.425781 C 41.054688 169.90625 40.351563 170.171875 39.667969 170.425781 C 39.378906 170.535156 39.097656 170.640625 38.863281 170.753906 L 38.859375 170.757813 L 38.835938 170.769531 C 38.773438 170.800781 38.679688 170.84375 38.558594 170.890625 L 38.558594 170.898438 C 37.796875 171.210938 36.996094 171.230469 36.300781 171.03125 Z M 36.300781 171.027344 "/>
<path style=" stroke:none;fill-rule:evenodd;fill:rgb(100%,0%,0%);fill-opacity:1;" d="M 162.40625 81.617188 C 159.71875 83.582031 159.113281 85.726563 156.75 85.8125 C 155.632813 85.851563 155.347656 85.070313 154.613281 84.472656 C 153.394531 83.488281 151.183594 85.046875 151.894531 86.925781 C 152.566406 88.707031 154.535156 89.332031 156.527344 89.113281 C 161.101563 88.617188 162.175781 84.75 162.40625 81.617188 Z M 216.453125 168.722656 C 216.164063 169.425781 215.191406 169.726563 214.304688 169.277344 C 213.511719 168.878906 212.410156 168.632813 211.703125 168.097656 C 210.917969 167.496094 209.246094 166.535156 208.734375 165.6875 C 208.316406 164.992188 208.382813 163.984375 209.101563 163.605469 C 209.488281 163.402344 210.292969 163.363281 211.082031 163.203125 C 212.09375 163 213.132813 162.714844 213.851563 162.882813 C 215.164063 163.199219 212.179688 165.839844 212.835938 166.453125 C 213.375 166.957031 216.347656 163.222656 216.652344 164.054688 C 217.230469 165.636719 216.726563 168.042969 216.453125 168.722656 Z M 208 161.949219 C 207.15625 161.894531 206.558594 161.144531 206.796875 160.054688 C 207.007813 159.085938 207.691406 157.890625 208.074219 156.972656 C 208.503906 155.953125 208.503906 154.554688 209.277344 153.761719 C 209.914063 153.113281 211.027344 152.898438 211.636719 153.570313 C 212.390625 154.398438 213.996094 155.65625 213.871094 157.121094 C 213.78125 158.167969 210.625 156.117188 210.472656 157.289063 C 210.324219 158.445313 213.546875 159.210938 213.21875 160.148438 C 213.058594 160.601563 209.648438 162.054688 208 161.949219 Z M 221.855469 151.394531 C 221.976563 150.554688 221.210938 149.710938 220.097656 149.636719 C 219.105469 149.574219 218.035156 149.984375 217.050781 150.101563 C 215.949219 150.230469 214.605469 149.851563 213.632813 150.378906 C 212.832031 150.8125 212.320313 151.820313 212.800781 152.59375 C 213.390625 153.546875 214.589844 155.269531 216.035156 155.550781 C 217.066406 155.753906 216.683594 152.640625 217.050781 152.59375 C 217.304688 152.5625 218.039063 155.8125 218.804688 155.183594 C 220.261719 153.984375 221.734375 152.207031 221.855469 151.394531 Z M 226.589844 160.933594 C 227.429688 161.066406 228.035156 159.851563 227.796875 158.761719 C 227.585938 157.792969 226.902344 156.875 226.519531 155.957031 C 226.089844 154.933594 226.089844 153.539063 225.316406 152.746094 C 224.679688 152.097656 223.566406 151.882813 222.953125 152.554688 C 222.203125 153.382813 220.503906 155.007813 220.628906 156.472656 C 220.71875 157.523438 223.96875 156.300781 224.121094 156.640625 C 224.589844 157.707031 221.785156 158.839844 222.113281 159.777344 C 222.273438 160.230469 224.945313 160.667969 226.589844 160.933594 Z M 219.304688 168.875 C 219.707031 169.515625 220.714844 169.652344 221.515625 169.058594 C 222.226563 168.53125 223.273438 168.105469 223.878906 167.453125 C 224.554688 166.730469 226.035156 165.5 226.398438 164.578125 C 226.691406 163.824219 226.457031 162.839844 225.6875 162.585938 C 225.269531 162.453125 224.46875 162.550781 223.667969 162.527344 C 222.636719 162.496094 222.023438 161.835938 221.34375 162.125 C 220.101563 162.65625 223.027344 165.3125 222.488281 166.027344 C 222.039063 166.617188 218.480469 163.433594 218.320313 164.308594 C 218.015625 165.964844 218.917969 168.25 219.304688 168.875 Z M 217.742188 157.769531 C 216.644531 157.769531 215.757813 158.65625 215.757813 159.753906 C 215.757813 160.851563 216.644531 161.742188 217.742188 161.742188 C 218.839844 161.742188 219.730469 160.851563 219.730469 159.753906 C 219.730469 158.65625 218.839844 157.769531 217.742188 157.769531 Z M 35.933594 168.722656 C 36.222656 169.425781 37.195313 169.726563 38.082031 169.277344 C 38.875 168.878906 39.976563 168.632813 40.683594 168.097656 C 41.46875 167.496094 43.140625 166.535156 43.652344 165.6875 C 44.070313 164.992188 44.007813 163.984375 43.289063 163.605469 C 42.898438 163.402344 42.09375 163.363281 41.308594 163.203125 C 40.296875 163 39.253906 162.714844 38.535156 162.882813 C 37.222656 163.199219 40.207031 165.839844 39.554688 166.453125 C 39.011719 166.957031 36.042969 163.222656 35.738281 164.054688 C 35.15625 165.636719 35.660156 168.042969 35.933594 168.722656 Z M 44.386719 161.949219 C 45.230469 161.894531 45.828125 161.144531 45.59375 160.054688 C 45.382813 159.085938 44.695313 157.890625 44.3125 156.972656 C 43.882813 155.953125 43.882813 154.554688 43.109375 153.761719 C 42.472656 153.113281 41.359375 152.898438 40.75 153.570313 C 39.996094 154.398438 38.390625 155.65625 38.515625 157.121094 C 38.605469 158.167969 41.765625 156.117188 41.914063 157.289063 C 42.0625 158.445313 38.839844 159.210938 39.167969 160.148438 C 39.328125 160.601563 42.738281 162.054688 44.386719 161.949219 Z M 30.535156 151.394531 C 30.410156 150.554688 31.175781 149.710938 32.289063 149.636719 C 33.28125 149.574219 34.351563 149.984375 35.335938 150.101563 C 36.4375 150.230469 37.78125 149.851563 38.753906 150.378906 C 39.554688 150.8125 40.066406 151.820313 39.585938 152.59375 C 38.996094 153.546875 37.796875 155.269531 36.351563 155.550781 C 35.320313 155.753906 35.707031 152.640625 35.335938 152.59375 C 35.082031 152.5625 34.347656 155.8125 33.582031 155.183594 C 32.125 153.984375 30.652344 152.207031 30.535156 151.394531 Z M 25.796875 160.933594 C 24.957031 161.066406 24.351563 159.851563 24.589844 158.761719 C 24.800781 157.792969 25.484375 156.875 25.871094 155.957031 C 26.296875 154.933594 26.296875 153.539063 27.074219 152.746094 C 27.707031 152.097656 28.820313 151.882813 29.433594 152.554688 C 30.1875 153.382813 31.882813 155.007813 31.757813 156.472656 C 31.667969 157.523438 28.417969 156.300781 28.269531 156.640625 C 27.796875 157.707031 30.605469 158.839844 30.273438 159.777344 C 30.113281 160.230469 27.445313 160.667969 25.796875 160.933594 Z M 33.082031 168.875 C 32.683594 169.515625 31.671875 169.652344 30.871094 169.058594 C 30.160156 168.53125 29.113281 168.105469 28.507813 167.453125 C 27.832031 166.730469 26.351563 165.5 25.992188 164.578125 C 25.695313 163.824219 25.929688 162.839844 26.699219 162.585938 C 27.117188 162.453125 27.917969 162.550781 28.71875 162.527344 C 29.753906 162.496094 30.367188 161.835938 31.046875 162.125 C 32.285156 162.65625 29.359375 165.3125 29.898438 166.027344 C 30.347656 166.617188 33.90625 163.433594 34.066406 164.308594 C 34.371094 165.964844 33.46875 168.25 33.082031 168.875 Z M 34.644531 157.769531 C 35.742188 157.769531 36.628906 158.65625 36.628906 159.753906 C 36.628906 160.851563 35.742188 161.742188 34.644531 161.742188 C 33.546875 161.742188 32.65625 160.851563 32.65625 159.753906 C 32.65625 158.65625 33.546875 157.769531 34.644531 157.769531 Z M 29.632813 97.765625 C 30.570313 97.765625 31.472656 97.894531 32.332031 98.132813 C 31.800781 98.285156 31.28125 98.453125 30.78125 98.644531 C 29.628906 99.078125 28.566406 99.628906 27.621094 100.324219 C 27.101563 100.105469 26.582031 99.910156 26.058594 99.734375 C 25.503906 99.546875 24.941406 99.382813 24.378906 99.246094 C 25.910156 98.308594 27.707031 97.765625 29.632813 97.765625 Z M 34.234375 98.878906 C 35.125 99.335938 35.933594 99.921875 36.644531 100.613281 C 36.054688 100.746094 35.476563 100.898438 34.917969 101.078125 C 33.769531 101.445313 32.695313 101.925781 31.730469 102.554688 C 30.808594 101.933594 29.847656 101.378906 28.871094 100.898438 C 29.585938 100.4375 30.363281 100.0625 31.195313 99.746094 C 32.148438 99.382813 33.167969 99.101563 34.234375 98.878906 Z M 37.558594 101.628906 C 38.210938 102.460938 38.734375 103.402344 39.101563 104.417969 L 34.351563 104.605469 C 33.847656 104.148438 33.316406 103.710938 32.769531 103.296875 C 33.542969 102.84375 34.382813 102.484375 35.277344 102.195313 C 36.003906 101.964844 36.765625 101.777344 37.558594 101.628906 Z M 39.441406 105.582031 C 39.605469 106.304688 39.695313 107.054688 39.695313 107.824219 C 39.695313 112 37.148438 115.582031 33.523438 117.105469 C 33.449219 117.082031 33.371094 117.058594 33.296875 117.03125 C 33.496094 116.777344 33.6875 116.515625 33.875 116.25 C 34.195313 115.785156 34.503906 115.292969 34.796875 114.769531 C 36.207031 112.246094 37.136719 109.207031 37.589844 105.65625 Z M 31.742188 117.664063 C 31.0625 117.808594 30.359375 117.886719 29.632813 117.886719 C 25.855469 117.886719 22.5625 115.800781 20.84375 112.71875 C 22.507813 113.75 24.339844 114.710938 26.011719 115.378906 C 26.699219 115.652344 27.355469 115.878906 27.964844 116.042969 C 28.527344 116.195313 29.054688 116.296875 29.535156 116.332031 C 30.152344 116.777344 30.835938 117.210938 31.566406 117.574219 C 31.625 117.605469 31.683594 117.632813 31.742188 117.664063 Z M 20.011719 110.769531 C 19.730469 109.835938 19.574219 108.851563 19.574219 107.824219 C 19.574219 107.660156 19.578125 107.496094 19.585938 107.332031 C 21.132813 108.339844 22.75 109.25 24.441406 110.058594 C 26.484375 111.035156 28.628906 111.867188 30.878906 112.550781 C 30.445313 113.46875 29.96875 114.332031 29.445313 115.140625 C 29.089844 115.101563 28.695313 115.019531 28.269531 114.90625 C 27.699219 114.75 27.085938 114.539063 26.449219 114.285156 C 24.320313 113.433594 21.929688 112.101563 20.011719 110.769531 Z M 19.738281 106.019531 C 19.902344 105.117188 20.1875 104.253906 20.574219 103.453125 C 22.507813 103.945313 24.402344 104.667969 26.257813 105.617188 C 28.253906 106.640625 30.210938 107.933594 32.128906 109.492188 C 31.972656 109.933594 31.8125 110.359375 31.648438 110.777344 C 31.554688 111.011719 31.460938 111.242188 31.363281 111.46875 C 29.121094 110.792969 26.980469 109.96875 24.949219 108.996094 C 23.128906 108.125 21.390625 107.132813 19.738281 106.019531 Z M 21.167969 102.390625 C 21.703125 101.5625 22.355469 100.816406 23.101563 100.175781 C 23.414063 100.234375 23.726563 100.300781 24.039063 100.375 C 24.582031 100.503906 25.132813 100.664063 25.6875 100.851563 C 28.398438 101.761719 31.128906 103.320313 33.410156 105.34375 C 33.128906 106.378906 32.839844 107.363281 32.535156 108.304688 C 30.664063 106.820313 28.75 105.574219 26.792969 104.570313 C 24.953125 103.628906 23.078125 102.902344 21.167969 102.390625 Z M 32.09375 116.523438 L 32.164063 116.558594 C 32.421875 116.246094 32.667969 115.917969 32.90625 115.578125 C 33.214844 115.128906 33.503906 114.667969 33.765625 114.195313 C 35.078125 111.855469 35.953125 109.023438 36.394531 105.703125 L 34.515625 105.777344 C 33.976563 107.734375 33.40625 109.539063 32.742188 111.210938 C 32.105469 112.8125 31.390625 114.273438 30.546875 115.605469 C 31.035156 115.9375 31.550781 116.253906 32.09375 116.523438 Z M 222.089844 97.765625 C 221.15625 97.765625 220.25 97.894531 219.394531 98.132813 C 219.925781 98.285156 220.441406 98.453125 220.945313 98.644531 C 222.09375 99.078125 223.15625 99.628906 224.101563 100.324219 C 224.621094 100.105469 225.144531 99.910156 225.664063 99.734375 C 226.222656 99.546875 226.78125 99.382813 227.34375 99.246094 C 225.816406 98.308594 224.015625 97.765625 222.089844 97.765625 Z M 217.488281 98.878906 C 216.601563 99.335938 215.789063 99.921875 215.078125 100.613281 C 215.671875 100.746094 216.246094 100.898438 216.804688 101.078125 C 217.957031 101.445313 219.027344 101.925781 219.992188 102.554688 C 220.914063 101.933594 221.875 101.378906 222.851563 100.898438 C 222.136719 100.4375 221.359375 100.0625 220.527344 99.746094 C 219.578125 99.382813 218.554688 99.101563 217.488281 98.878906 Z M 214.167969 101.628906 C 213.511719 102.460938 212.988281 103.402344 212.625 104.417969 L 217.371094 104.605469 C 217.878906 104.148438 218.40625 103.710938 218.953125 103.296875 C 218.179688 102.84375 217.339844 102.484375 216.445313 102.195313 C 215.71875 101.964844 214.957031 101.777344 214.167969 101.628906 Z M 212.28125 105.582031 C 212.117188 106.304688 212.03125 107.054688 212.03125 107.824219 C 212.03125 112 214.578125 115.582031 218.199219 117.105469 C 218.277344 117.082031 218.351563 117.058594 218.425781 117.03125 C 218.226563 116.777344 218.035156 116.515625 217.851563 116.25 C 217.527344 115.785156 217.21875 115.292969 216.929688 114.769531 C 215.519531 112.246094 214.585938 109.207031 214.132813 105.65625 Z M 219.980469 117.664063 C 220.660156 117.808594 221.367188 117.886719 222.089844 117.886719 C 225.867188 117.886719 229.160156 115.800781 230.878906 112.71875 C 229.21875 113.75 227.382813 114.710938 225.710938 115.378906 C 225.027344 115.652344 224.367188 115.878906 223.757813 116.042969 C 223.195313 116.195313 222.667969 116.296875 222.1875 116.332031 C 221.570313 116.777344 220.890625 117.210938 220.15625 117.574219 C 220.097656 117.605469 220.039063 117.632813 219.980469 117.664063 Z M 231.710938 110.769531 C 231.996094 109.835938 232.148438 108.851563 232.148438 107.824219 C 232.148438 107.660156 232.144531 107.496094 232.136719 107.332031 C 230.589844 108.339844 228.972656 109.25 227.28125 110.058594 C 225.238281 111.035156 223.09375 111.867188 220.84375 112.550781 C 221.28125 113.46875 221.753906 114.332031 222.277344 115.140625 C 222.632813 115.101563 223.027344 115.019531 223.453125 114.90625 C 224.023438 114.75 224.636719 114.539063 225.273438 114.285156 C 227.402344 113.433594 229.792969 112.101563 231.710938 110.769531 Z M 231.988281 106.019531 C 231.824219 105.117188 231.539063 104.253906 231.148438 103.453125 C 229.214844 103.945313 227.320313 104.667969 225.464844 105.617188 C 223.472656 106.640625 221.511719 107.933594 219.59375 109.492188 C 219.75 109.933594 219.910156 110.359375 220.074219 110.777344 C 220.167969 111.011719 220.261719 111.242188 220.359375 111.46875 C 222.605469 110.792969 224.742188 109.96875 226.773438 108.996094 C 228.59375 108.125 230.332031 107.132813 231.988281 106.019531 Z M 230.554688 102.390625 C 230.019531 101.5625 229.367188 100.816406 228.621094 100.175781 C 228.308594 100.234375 227.996094 100.300781 227.683594 100.375 C 227.144531 100.503906 226.59375 100.664063 226.039063 100.851563 C 223.324219 101.761719 220.59375 103.320313 218.3125 105.34375 C 218.59375 106.378906 218.882813 107.363281 219.191406 108.304688 C 221.058594 106.820313 222.972656 105.574219 224.929688 104.570313 C 226.769531 103.628906 228.644531 102.902344 230.554688 102.390625 Z M 219.632813 116.523438 L 219.558594 116.558594 C 219.304688 116.246094 219.058594 115.917969 218.820313 115.578125 C 218.507813 115.128906 218.21875 114.667969 217.957031 114.195313 C 216.648438 111.855469 215.769531 109.023438 215.328125 105.703125 L 217.207031 105.777344 C 217.746094 107.734375 218.320313 109.539063 218.984375 111.210938 C 219.617188 112.8125 220.335938 114.273438 221.175781 115.605469 C 220.691406 115.9375 220.171875 116.253906 219.632813 116.523438 Z M 219.632813 116.523438 "/>
</g>
</svg>
