<?xml version="1.0" encoding="utf-8"?>
<!-- Generator: Adobe Illustrator 19.0.0, SVG Export Plug-In . SVG Version: 6.00 Build 0)  -->
<svg version="1.1" id="Layer_1" xmlns="http://www.w3.org/2000/svg" xmlns:xlink="http://www.w3.org/1999/xlink" x="0px" y="0px"
	 viewBox="0 0 500 500" style="enable-background:new 0 0 500 500;" xml:space="preserve">
<style type="text/css">
	.st0{fill:#231F20;}
</style>
<g id="XMLID_25_">
	<path id="XMLID_27_" class="st0" d="M250,172.1c17.5,4.8,30.6,7.1,30.6,7.1c-7.5-7.5-14.2-15.3-20.1-22.6
		c10.2-14.4,18.2-24.3,18.2-24.3c-10.8,2.4-21,5.3-30.1,8.3c-8.7-12.5-13.4-21.2-13.4-21.2c-2.5,9.4-3.8,18.7-4.2,27.5
		c-14.5,5.6-23.6,10.2-23.6,10.2c7.8,3.5,16,6.6,23.9,9.3c1.3,16.9,4.7,28.7,4.7,28.7C240.3,187.3,245.2,179.4,250,172.1"/>
	<path id="XMLID_31_" class="st0" d="M330,167.7c-2.4,3.7-6,6.4-10.3,8.3c-0.6-12-2.4-22.6-2.4-22.6c-3.6,9.8-7.5,18.6-11.2,26.1
		c-12.9,1.6-25.5-0.2-25.5-0.2c6.9,8.3,12.3,13.2,16.6,16.5c-6.5,11-11.2,16.8-11.2,16.8c9.1-2.1,16.3-5.5,22.1-9.6
		c2.4,1.6,4.4,3.4,6.4,6.5c0,0,3.7-5.3,5-17.5C328.6,180,330,167.7,330,167.7"/>
	<path id="XMLID_32_" class="st0" d="M325.8,134.5c-4.1-9.2-10-16.2-16.4-21.4c-5.5-11.5-11.8-16.9-11.8-16.9
		c0.5,2.7,0.1,5.7-0.9,8.8c-13.7-6.8-26.1-7.7-26.1-7.7c7.9,5.2,15,11.7,21,18.3c-5.6,9.1-12.9,16.7-12.9,16.7
		c9.7-2.2,17.5-3.1,23.8-3.3c9.6,13.2,14.8,24.3,14.8,24.3c0.2-8.9-0.7-16.7-2.2-23.5C323.2,131.5,325.8,134.5,325.8,134.5"/>
	<path id="XMLID_33_" class="st0" d="M270.6,97.3c-6.6-3.3-13-5.7-18.9-7.3c7.5-6.4,14.5-8,14.5-8c-12.1-0.5-22.4,1.7-31.1,5
		c-13-1-21.2,1.2-21.2,1.2c1.9,1.5,3.6,4.1,5.3,7.2c-11,7.5-16.5,15.3-16.5,15.3c6.6-3.3,13.6-5.8,20.5-7.7c0.8,1.4,1.5,2.8,2.4,4.1
		c4.6,7.1,9.6,12.1,9.6,12.1c1.8-8.5,4.9-15.2,8.4-20.3C259,96.9,270.6,97.3,270.6,97.3"/>
	<path id="XMLID_34_" class="st0" d="M187.3,123.6c4.1-4,9.2-8.3,15.3-12.7c0,0-5.6,0-11.6,1.5c3.9-9.5,8.3-14.8,8.3-14.8
		s-25,17.8-29.8,49.8c0,0,2.1-5.8,9.2-14.5c2.8,6.3,6.1,10.3,6.1,10.3C184.9,135.9,185.9,129.3,187.3,123.6"/>
	<path id="XMLID_35_" class="st0" d="M207.4,157.2c-8.7,0.3-15.5,1-20.8,2c-1.5-9.3-1.7-16-1.7-16c-4.3,6.5-7.1,12.9-8.8,18.7
		c-6,2.2-7.6,4.4-7.6,4.4c0.9,3.2,2.8,6.4,5.2,9.3c-0.7,13.9,3.8,23.1,3.8,23.1c1-4.9,3-9.6,5.6-14.1c7.4,5.9,14.7,9.8,14.7,9.8
		c-3.5-6.2-6-13.1-7.9-19.9C198.2,164.2,207.4,157.2,207.4,157.2"/>
	<path id="XMLID_36_" class="st0" d="M250.3,228.3c0,0-7.3-2.9-17.7-8.8c0.4-6.3,1.3-14.3,3.3-24.4c0,0-8.3,8.2-19,14.6
		c-6.2-4.3-12.8-9.4-19.1-15.2c0,0,3.1,9.6,9.1,20.1c-5.7,2.1-11.5,3.1-16.8,1.8c0,0,6.3,7.9,25.7,11.2c5.4,6.4,12,11.7,19.6,13.5
		c0,0-2.3-2.5-2.8-12C237.8,229.1,243.8,228.9,250.3,228.3"/>
	<path id="XMLID_37_" class="st0" d="M285.6,227.5c1.7-7.7,0.4-14.8,0.4-14.8c-4.9,7.1-9.8,12.5-14.2,16.6
		c-12,0.6-21.4-0.9-21.4-0.9s5.4,5.4,11.6,8.5c-8.2,5.1-13.7,5.5-13.7,5.5c35.8,0.8,57.3-22.6,57.3-22.6
		C299.5,223.6,292.5,226,285.6,227.5"/>
	<path id="XMLID_38_" class="st0" d="M210.8,319.2c9.1-10.4,22.4-16.9,37.2-16.9c15.3,0,28.9,6.9,38,17.8l2.4-2.2
		c-9.7-11.5-24.1-18.8-40.3-18.8c-15.8,0-29.9,6.9-39.5,17.9L210.8,319.2"/>
	<path id="XMLID_39_" class="st0" d="M309.8,291.9c-15.4-16.2-37.2-26.3-61.3-26.3c-24.4,0-46.4,10.3-61.8,26.9l-2.6-2.6
		c16.2-17,39.1-27.5,64.4-27.5c25.1,0,47.8,10.4,64,27.1L309.8,291.9"/>
	<path id="XMLID_43_" class="st0" d="M327.1,363.4c-10.7,0-17.2-9-17.2-18.8c0-10.2,7.6-17.6,17.5-17.6c11,0,17.6,8.7,17.6,18.3
		C344.9,356.5,336.7,363.4,327.1,363.4 M326.5,332.1c-6.7,0-8.6,6.3-8.6,10.6c0,6.3,2.8,15.5,10.5,15.5c5.5,0,8.7-4.9,8.7-10.8
		C337,341.2,334.5,332.1,326.5,332.1z"/>
	<path id="XMLID_44_" class="st0" d="M261.5,358.3c0,1.9,0.4,2.6,3.5,3.2v1.3c-3.4-0.2-5.5-0.3-7.5-0.3c-2,0-4.1,0.2-6.5,0.3v-1.3
		c2.1-0.4,2.5-1.3,2.5-3.8v-26.3c0-1.5-0.7-2.2-2.5-2.3v-1.5H267c9.9,0,13.6,4.7,13.6,11c0,6.7-5.1,10.8-12,10.8
		c-2.6,0-6.5-1.3-6.5-2.5c0-0.5,0.3-0.5,0.8-0.5c0.5,0,1.2,0.2,1.9,0.2c5.6,0,7.8-3.2,7.8-7.6c0-4.8-3-6.6-7.7-6.6l-3.3,0.3
		L261.5,358.3"/>
	<path id="XMLID_48_" class="st0" d="M291,331.1c0-1.5-0.6-2.2-2.5-2.3v-1.4c2.4,0.2,4.5,0.3,6.5,0.3c2,0,4.1-0.2,6.4-0.3v1.4
		c-1.8,0.1-2.5,0.7-2.5,2.3v28.2c0,1.5,0.6,2.2,2.5,2.3v1.3c-2.4-0.2-4.5-0.3-6.4-0.3c-2,0-4.1,0.2-6.5,0.3v-1.3
		c1.8-0.1,2.5-0.8,2.5-2.3V331.1"/>
	<path id="XMLID_49_" class="st0" d="M355.7,331c0-1.5-0.6-2.2-2.5-2.3v-1.4c2.4,0.2,4.5,0.3,6.5,0.3c1.5,0,3.1,0,4.7-0.3l14.8,24
		h0.1v-19.6c0-2.8-1.8-3-3.2-3v-1.4c1.8,0.2,3.5,0.3,5.2,0.3c1.8,0,3.6-0.2,5.3-0.3v1.4c-1.8,0.1-2.5,0.7-2.5,2.3v31.8h-5.7
		l-17.8-27.8h-0.1v23.4c0,2.8,1.8,3,3.2,3v1.3c-1.8-0.2-3.5-0.3-5.2-0.3c-1.8,0-3.5,0.2-5.3,0.3v-1.3c1.8-0.1,2.5-0.8,2.5-2.3V331"
		/>
	<path id="XMLID_50_" class="st0" d="M397.5,350.6c1.1,6,5.1,8.9,11,8.9c3.3,0,8-0.9,8-5.1c0-3.3-3.4-4.2-6-5l-3.9-1.2
		c-5.6-1.7-11.3-4-11.3-10.6c0-8.6,8.3-11.2,16.5-11.2c3.5,0,7.1,0.6,10.3,1.8c0,4,0.2,7.4,0.4,10.2h-1.4c-1.2-5.1-5.3-7.5-10.3-7.5
		c-2.8,0-7.4,0.9-7.4,4.7c0,3,2.7,3.9,4.9,4.6l5.8,1.7c5.6,1.6,10.8,3.7,10.8,10.8c0,7.3-7.4,11.2-16.4,11.2c-4,0-8.3-0.7-12-2
		c0-4.4-0.2-8.2-0.4-11.4L397.5,350.6"/>
	<path id="XMLID_51_" class="st0" d="M118,331.1c0-1.5-0.6-2.2-2.5-2.3v-1.4c2.4,0.2,4.5,0.3,6.4,0.3c2,0,4.1-0.2,6.5-0.3v1.4
		c-1.8,0.1-2.5,0.7-2.5,2.3v10.6h13v-10.6c0-1.5-0.6-2.2-2.5-2.3v-1.4c2.4,0.2,4.5,0.3,6.5,0.3c2,0,4.1-0.2,6.4-0.3v1.4
		c-1.8,0-2.5,0.7-2.5,2.3l0,28.2c0,1.5,0.7,2.2,2.5,2.3v1.4c-2.4-0.2-4.5-0.3-6.4-0.3c-2,0-4.1,0.2-6.5,0.3v-1.4
		c1.8-0.1,2.5-0.8,2.5-2.3v-12.4h-13v12.4c0,1.5,0.6,2.2,2.5,2.3v1.4c-2.4-0.2-4.5-0.3-6.5-0.3c-2,0-4.1,0.2-6.4,0.3v-1.4
		c1.8-0.1,2.5-0.8,2.5-2.3L118,331.1"/>
	<path id="XMLID_58_" class="st0" d="M169.3,347.5c1.4-3.8,3.1-8.1,4.4-12.4h0.1c1.1,5.4,2,8.9,3.1,12.4H169.3 M156.3,362.8
		c1.9-0.2,3.7-0.3,5.6-0.3c1.8,0,3.7,0.2,5.5,0.3v-1.3c-1.8-0.1-2.5-0.8-2.5-1.7c0-0.5,0.2-1.1,0.4-1.9l2.4-6.3h10.5l1.7,5.2
		c0.3,0.7,0.5,1.9,0.5,2.7c0,1.2-0.7,1.7-2.7,2v1.3c2.3-0.2,4.6-0.3,6.9-0.3c2.3,0,4.6,0.2,6.8,0.3v-1.3c-1.6-0.4-2.4-1.1-3.2-3.5
		l-9.9-30.6c-1.7,0.2-3.4,0.3-5,0.3c-1.7,0-3.3-0.2-5.1-0.3v1.4c1.5,0,2,0.9,2,1.4c0,0.5-0.4,1.3-0.7,2.1L159.1,359
		c-0.5,1.4-1.2,2.3-2.8,2.5L156.3,362.8L156.3,362.8z"/>
	<path id="XMLID_59_" class="st0" d="M202.4,336.1c0.1-1.5,0.2-3,0.2-5.2c0-1.7-0.4-1.9-2.4-2.2v-1.4c1.6,0.2,3.5,0.3,5.5,0.3
		c1.9,0,3.9-0.2,5.8-0.3l9.4,24.9l8.4-24.9c1.9,0.2,3.7,0.3,5.6,0.3c1.9,0,3.8-0.2,5.6-0.3v1.4c-1.9,0.2-2.2,0.7-2.2,2.2
		c0,1.5,0.2,3.9,0.4,5.7l1.7,22.9c0.1,1.4,1.7,1.6,2.7,1.8v1.3c-2.3-0.2-4.7-0.3-7-0.3c-2.4,0-4.7,0.2-6.9,0.3v-1.3
		c2.6-0.3,3.3-0.8,3.3-3.3c0-1.3-0.2-3.7-0.3-5.5l-1.2-16h-0.1l-9,26.4h-4.5l-10.3-26.7H207l-0.4,15.8c-0.1,2.8-0.2,4.2-0.2,5.7
		c0,2.7,0.3,3.3,3.5,3.7v1.3c-2.2-0.2-4.1-0.3-6.2-0.3c-2,0-4,0.2-5.6,0.3v-1.3c2.1-0.2,3-0.6,3.1-2.9L202.4,336.1"/>
	<path id="XMLID_60_" class="st0" d="M107.5,360.9c-3.7,2.8-9,4-12.4,4c-12.8,0-20.1-9.9-20.1-20.1c0-10.4,7.2-20.5,21.1-20.5
		c4.9,0,8.4,0.9,9.7,1.5c0,4.1,0.2,8,0.5,11.9h-1.6c-1-5-4.4-7.6-9.4-7.6c-6.8,0-12,5.3-12,14.3c0,6.8,5.6,14.4,13.4,14.4
		c3.3,0,8.1-1.8,11.3-4.5L107.5,360.9"/>
	<path id="XMLID_61_" class="st0" d="M165.6,382.3c0-1.2-0.5-1.7-1.9-1.7v-1.1c1.8,0.1,3.4,0.2,5,0.2c1.7,0,4.3-0.1,5.5-0.2v1.1
		c-2.1,0.1-2.4,1.1-2.4,2.3v20.3h7.7c2.7,0,3.9-1.2,4.6-4.4h1.3c-0.5,2.7-1,5.4-1,8h-20.6v-1.1c1.4,0,1.9-0.6,1.9-1.7V382.3"/>
	<path id="XMLID_62_" class="st0" d="M192.1,382.4c0-1.2-0.5-1.7-1.9-1.7v-1.1h21c0.1,2.3,0.1,4.1,0.3,6.4h-1.1
		c-0.4-2.3-1-3.1-3.2-3.1h-8.9v8h5.5c1.9,0,2.2-0.6,2.4-2.1h1.1c-0.1,1-0.2,2.8-0.2,4c0,1.1,0.1,2.9,0.2,3.9h-1.1
		c-0.2-1.5-0.5-2.1-2.4-2.1h-5.5v8.6h9.3c2.2,0,2.9-0.7,3.7-4.2h1.4c-0.4,3.4-0.5,5.6-0.5,7.9h-21.9v-1.1c1.4,0,1.9-0.6,1.9-1.7
		V382.4"/>
	<path id="XMLID_65_" class="st0" d="M217.5,405.7c1.2-0.2,1.7-0.8,2.2-1.9l8.1-20.6c0.3-0.6,0.5-1.2,0.5-1.6c0-0.4-0.4-1.1-1.6-1.1
		v-1.1c1.3,0.1,2.6,0.2,3.9,0.2c1.3,0,2.6-0.1,3.9-0.2l7.6,23.6c0.6,1.8,1.2,2.4,2.5,2.7v1.1c-1.7-0.1-3.5-0.2-5.3-0.2
		c-1.8,0-3.6,0.1-5.4,0.2v-1.1c1.5-0.3,2.1-0.6,2.1-1.6c0-0.6-0.2-1.5-0.4-2.1l-1.3-4h-8.1l-1.8,4.9c-0.2,0.6-0.3,1-0.3,1.4
		c0,0.7,0.6,1.2,2,1.3v1.1c-1.4-0.1-2.9-0.2-4.3-0.2c-1.4,0-2.9,0.1-4.3,0.2V405.7 M233.4,394.9c-0.9-2.7-1.6-5.3-2.4-9.5H231
		c-1,3.3-2.3,6.6-3.4,9.5H233.4z"/>
	<path id="XMLID_66_" class="st0" d="M266.9,397.1c0-1.7-0.8-1.7-2.6-1.8v-1.4c1.7,0.1,3.4,0.2,5.1,0.2c1.9,0,3.7-0.1,5.6-0.2v1.3
		c-1.5,0-2.2,0.4-2.2,2.3v9.3h-2.4l-0.9-2.8c-2.6,2.5-5.4,3.3-8.2,3.3c-7.8,0-12.8-6.4-12.8-13.9c0-9,6-14.5,15-14.5
		c2.9,0,6,0.5,8.2,1.9c0,2,0.1,4.4,0.3,7.2h-1.2c-0.5-3.7-4-5.5-7.5-5.5c-5.8,0-8.6,4.4-8.6,9.8c0,5.2,2.9,11,7.7,11
		c3,0,4.6-1.4,4.6-3.3L266.9,397.1"/>
	<path id="XMLID_67_" class="st0" d="M283.4,382.3c0-1.2-0.5-1.7-1.9-1.7v-1.1c1.3,0.1,3,0.2,4.8,0.2c2.2,0,3.9-0.1,5.5-0.2v1.1
		c-1.8,0.1-2.2,0.4-2.2,2v15.5c0,4.7,1.9,5.6,5.3,5.6c3.4,0,5.3-1,5.3-5.6v-15.5c0-1.6-0.5-1.9-2.2-2v-1.1c1.7,0.1,3.4,0.2,5.5,0.2
		c1.7,0,3.4-0.1,4.8-0.2v1.1c-1.4,0-1.9,0.6-1.9,1.7v14.9c0,7.7-4,10.1-11.5,10.1c-7.5,0-11.5-2.5-11.5-9.6L283.4,382.3"/>
	<path id="XMLID_68_" class="st0" d="M317,382.4c0-1.2-0.5-1.7-1.9-1.7v-1.1h21c0,2.3,0.1,4.1,0.3,6.4h-1.1c-0.4-2.3-1-3.1-3.2-3.1
		h-8.9v7.9h5.5c1.9,0,2.2-0.6,2.4-2.1h1.1c-0.1,1-0.2,2.8-0.2,3.9c0,1.1,0.1,3,0.2,4h-1.1c-0.2-1.5-0.5-2.1-2.4-2.1h-5.5v8.7h9.3
		c2.2,0,2.9-0.7,3.6-4.2h1.4c-0.4,3.4-0.5,5.6-0.5,7.9h-21.9v-1.1c1.4,0,1.9-0.6,1.9-1.7V382.4"/>
	<path id="XMLID_73_" class="st0" d="M343.9,418c2.7,0,5-2.1,5-5c0-2.9-2.3-4.9-5-4.9c-2.7,0-5,2.1-5,4.9
		C338.9,415.9,341.2,418,343.9,418 M339.9,413c0-2.3,1.8-4.1,4-4.1c2.2,0,4,1.8,4,4.1c0,2.4-1.8,4.1-4,4.1
		C341.7,417.2,339.9,415.4,339.9,413z M342.9,413.4h1l1.5,2.5h1l-1.6-2.5c0.8-0.1,1.5-0.6,1.5-1.6c0-1.1-0.7-1.6-2-1.6H342v5.7h0.9
		L342.9,413.4L342.9,413.4z M342.9,412.7v-1.8h1.2c0.6,0,1.2,0.1,1.2,0.8c0,0.9-0.7,0.9-1.4,0.9H342.9z"/>
	<path id="XMLID_74_" class="st0" d="M191.9,294.1l3.5-2.8l8.1,10c1.7,2,4.4,3.8,8,0.7c3.1-3,1.7-5.6-0.7-8.5l-7.2-8.9l3.6-2.9
		l8,9.9c1.8,2.2,2.7,4,2.7,6.7c0,3-1.7,5.6-4.1,7.7c-1.5,1.2-3.8,2.2-6.2,2.2c-3.4,0-5.6-1.6-7.3-3.6L191.9,294.1z"/>
	<path id="XMLID_75_" class="st0" d="M227.7,290.6l-2.8-13.7c-0.4-1.7-0.1-2.5,1.8-3l13-2.7l0.9,4.3l-11.1,2.2l1.1,4.9l10.1-2.1
		l0.9,4.1l-10.2,2.1l0.5,2.4c0.5,1.9,1.3,2.4,3.5,1.9l7.9-1.6l1,4.2l-8.1,1.7C230,296.3,228.4,293.5,227.7,290.6z"/>
	<path id="XMLID_76_" class="st0" d="M259.5,295l-1.9-0.4c-1.8-0.5-2.6-0.9-1.8-3.8l3.4-13c1.5-5.3,6.1-4.7,8.9-4l7.9,2.1L275,280
		l-7.3-2c-2-0.6-3.5-0.9-4.2,1.3l-0.6,2.6l9.9,2.5l-1.1,4.1l-10-2.6L259.5,295z"/>
	<path id="XMLID_77_" class="st0" d="M278.5,301.9l-4.2-2.5l18.9-12.2c1.3-0.9,2.5-1,3.3-0.3l0.8,0.8c0.8,0.8,1,0.9,0,4.3l-5.8,20.5
		l-3.8-3.5l1.2-4.2l-4.3-3.4l3.8-2.5l1.8,1.4l2.2-7.5L278.5,301.9z"/>
</g>
</svg>
